<mxfile host="Electron" modified="2024-03-28T07:25:52.071Z" agent="Mozilla/5.0 (Windows NT 10.0; Win64; x64) AppleWebKit/537.36 (KHTML, like Gecko) draw.io/21.2.1 Chrome/112.0.5615.87 Electron/24.1.2 Safari/537.36" etag="13mVVHALxWV1SpP9hqpE" version="21.2.1" type="device">
  <diagram name="第 1 页" id="q9NyIN3uyb69h4GF0Fi9">
    <mxGraphModel dx="581" dy="392" grid="0" gridSize="10" guides="1" tooltips="1" connect="1" arrows="1" fold="1" page="1" pageScale="1" pageWidth="4681" pageHeight="3300" math="0" shadow="0">
      <root>
        <mxCell id="0" />
        <mxCell id="1" parent="0" />
        <mxCell id="Af6eF92gB9gsv9GVImaX-1" value="PC&lt;br&gt;32b" style="rounded=0;whiteSpace=wrap;html=1;fontStyle=1;fillColor=#d5e8d4;strokeColor=#82b366;" parent="1" vertex="1">
          <mxGeometry x="220" y="280" width="50" height="80" as="geometry" />
        </mxCell>
        <mxCell id="Af6eF92gB9gsv9GVImaX-3" value="IM" style="rounded=0;whiteSpace=wrap;html=1;fillColor=#e1d5e7;strokeColor=#9673a6;fontStyle=1" parent="1" vertex="1">
          <mxGeometry x="330" y="880" width="120" height="60" as="geometry" />
        </mxCell>
        <mxCell id="Af6eF92gB9gsv9GVImaX-5" value="" style="endArrow=classic;html=1;rounded=0;exitX=1;exitY=0.5;exitDx=0;exitDy=0;entryX=0;entryY=0.5;entryDx=0;entryDy=0;" parent="1" source="Af6eF92gB9gsv9GVImaX-1" target="Af6eF92gB9gsv9GVImaX-3" edge="1">
          <mxGeometry width="50" height="50" relative="1" as="geometry">
            <mxPoint x="350" y="330" as="sourcePoint" />
            <mxPoint x="340" y="320" as="targetPoint" />
            <Array as="points">
              <mxPoint x="310" y="320" />
              <mxPoint x="310" y="910" />
            </Array>
          </mxGeometry>
        </mxCell>
        <mxCell id="Af6eF92gB9gsv9GVImaX-7" value="" style="endArrow=classic;html=1;rounded=0;exitX=1;exitY=0.5;exitDx=0;exitDy=0;" parent="1" source="Af6eF92gB9gsv9GVImaX-3" edge="1">
          <mxGeometry width="50" height="50" relative="1" as="geometry">
            <mxPoint x="510" y="580" as="sourcePoint" />
            <mxPoint x="640" y="310" as="targetPoint" />
            <Array as="points">
              <mxPoint x="470" y="910" />
              <mxPoint x="470" y="310" />
            </Array>
          </mxGeometry>
        </mxCell>
        <mxCell id="Af6eF92gB9gsv9GVImaX-10" value="" style="endArrow=classic;html=1;rounded=0;exitX=1;exitY=0.5;exitDx=0;exitDy=0;entryX=0;entryY=0.5;entryDx=0;entryDy=0;" parent="1" target="Af6eF92gB9gsv9GVImaX-1" edge="1">
          <mxGeometry width="50" height="50" relative="1" as="geometry">
            <mxPoint x="159.99999999999977" y="320" as="sourcePoint" />
            <mxPoint x="230" y="200" as="targetPoint" />
          </mxGeometry>
        </mxCell>
        <mxCell id="Af6eF92gB9gsv9GVImaX-11" value="DECODER" style="rounded=0;whiteSpace=wrap;html=1;fillColor=#dae8fc;strokeColor=#6c8ebf;fontStyle=1" parent="1" vertex="1">
          <mxGeometry x="680" y="261" width="70" height="100" as="geometry" />
        </mxCell>
        <mxCell id="Af6eF92gB9gsv9GVImaX-12" value="" style="endArrow=classic;html=1;rounded=0;exitX=1;exitY=0.375;exitDx=0;exitDy=0;exitPerimeter=0;" parent="1" edge="1">
          <mxGeometry width="50" height="50" relative="1" as="geometry">
            <mxPoint x="640" y="310" as="sourcePoint" />
            <mxPoint x="680" y="310" as="targetPoint" />
          </mxGeometry>
        </mxCell>
        <mxCell id="Af6eF92gB9gsv9GVImaX-17" value="" style="shape=waypoint;sketch=0;size=6;pointerEvents=1;points=[];fillColor=none;resizable=0;rotatable=0;perimeter=centerPerimeter;snapToPoint=1;strokeWidth=0;" parent="1" vertex="1">
          <mxGeometry x="760" y="300" width="20" height="20" as="geometry" />
        </mxCell>
        <mxCell id="Af6eF92gB9gsv9GVImaX-18" value="GLOBAL&lt;br&gt;REGFILE&lt;br&gt;&lt;br&gt;32x32b" style="rounded=0;whiteSpace=wrap;html=1;fontStyle=1;fillColor=#d5e8d4;strokeColor=#82b366;" parent="1" vertex="1">
          <mxGeometry x="830" y="290" width="80" height="210" as="geometry" />
        </mxCell>
        <mxCell id="Af6eF92gB9gsv9GVImaX-19" value="" style="endArrow=classic;html=1;rounded=0;entryX=0.013;entryY=0.095;entryDx=0;entryDy=0;entryPerimeter=0;" parent="1" target="Af6eF92gB9gsv9GVImaX-18" edge="1">
          <mxGeometry width="50" height="50" relative="1" as="geometry">
            <mxPoint x="770" y="310" as="sourcePoint" />
            <mxPoint x="840" y="280" as="targetPoint" />
          </mxGeometry>
        </mxCell>
        <mxCell id="Af6eF92gB9gsv9GVImaX-20" value="" style="endArrow=classic;html=1;rounded=0;entryX=0.012;entryY=0.524;entryDx=0;entryDy=0;entryPerimeter=0;" parent="1" target="Af6eF92gB9gsv9GVImaX-18" edge="1">
          <mxGeometry width="50" height="50" relative="1" as="geometry">
            <mxPoint x="770" y="310" as="sourcePoint" />
            <mxPoint x="800" y="440" as="targetPoint" />
            <Array as="points">
              <mxPoint x="770" y="400" />
            </Array>
          </mxGeometry>
        </mxCell>
        <mxCell id="Af6eF92gB9gsv9GVImaX-21" value="" style="endArrow=classic;html=1;rounded=0;entryX=0;entryY=0.714;entryDx=0;entryDy=0;entryPerimeter=0;" parent="1" target="Af6eF92gB9gsv9GVImaX-18" edge="1">
          <mxGeometry width="50" height="50" relative="1" as="geometry">
            <mxPoint x="2340" y="700" as="sourcePoint" />
            <mxPoint x="800" y="480" as="targetPoint" />
            <Array as="points">
              <mxPoint x="790" y="700" />
              <mxPoint x="790" y="440" />
            </Array>
          </mxGeometry>
        </mxCell>
        <mxCell id="Af6eF92gB9gsv9GVImaX-26" value="" style="endArrow=classic;html=1;rounded=0;exitX=0.425;exitY=0.349;exitDx=0;exitDy=0;exitPerimeter=0;" parent="1" source="Af6eF92gB9gsv9GVImaX-99" edge="1">
          <mxGeometry width="50" height="50" relative="1" as="geometry">
            <mxPoint x="690" y="400" as="sourcePoint" />
            <mxPoint x="1080" y="560" as="targetPoint" />
            <Array as="points">
              <mxPoint x="770" y="560" />
            </Array>
          </mxGeometry>
        </mxCell>
        <mxCell id="Af6eF92gB9gsv9GVImaX-27" value="" style="endArrow=classic;html=1;rounded=0;exitX=1;exitY=0.095;exitDx=0;exitDy=0;exitPerimeter=0;" parent="1" source="Af6eF92gB9gsv9GVImaX-18" edge="1">
          <mxGeometry width="50" height="50" relative="1" as="geometry">
            <mxPoint x="930" y="310" as="sourcePoint" />
            <mxPoint x="1080" y="310" as="targetPoint" />
          </mxGeometry>
        </mxCell>
        <mxCell id="Af6eF92gB9gsv9GVImaX-28" value="" style="endArrow=classic;html=1;rounded=0;exitX=1;exitY=0.523;exitDx=0;exitDy=0;exitPerimeter=0;" parent="1" source="Af6eF92gB9gsv9GVImaX-18" edge="1">
          <mxGeometry width="50" height="50" relative="1" as="geometry">
            <mxPoint x="900.3999999999999" y="469.55999999999995" as="sourcePoint" />
            <mxPoint x="1080" y="400" as="targetPoint" />
          </mxGeometry>
        </mxCell>
        <mxCell id="Af6eF92gB9gsv9GVImaX-37" value="ALU_Src1" style="text;html=1;align=center;verticalAlign=middle;resizable=0;points=[];autosize=1;strokeColor=none;fillColor=none;" parent="1" vertex="1">
          <mxGeometry x="1290" y="461.5" width="80" height="30" as="geometry" />
        </mxCell>
        <mxCell id="Af6eF92gB9gsv9GVImaX-33" value="ALU_Src0" style="text;html=1;align=center;verticalAlign=middle;resizable=0;points=[];autosize=1;strokeColor=none;fillColor=none;" parent="1" vertex="1">
          <mxGeometry x="1290" y="295" width="80" height="30" as="geometry" />
        </mxCell>
        <mxCell id="Af6eF92gB9gsv9GVImaX-38" value="ALU" style="rounded=0;whiteSpace=wrap;html=1;fontStyle=1;fillColor=#dae8fc;strokeColor=#6c8ebf;" parent="1" vertex="1">
          <mxGeometry x="1420" y="260" width="100" height="80" as="geometry" />
        </mxCell>
        <mxCell id="Af6eF92gB9gsv9GVImaX-39" value="MUL&amp;nbsp;" style="rounded=0;whiteSpace=wrap;html=1;fontStyle=1;fillColor=#dae8fc;strokeColor=#6c8ebf;" parent="1" vertex="1">
          <mxGeometry x="1470" y="400" width="100" height="50" as="geometry" />
        </mxCell>
        <mxCell id="Af6eF92gB9gsv9GVImaX-40" value="DIV" style="rounded=0;whiteSpace=wrap;html=1;fontStyle=1;fillColor=#dae8fc;strokeColor=#6c8ebf;" parent="1" vertex="1">
          <mxGeometry x="1470" y="500" width="100" height="50" as="geometry" />
        </mxCell>
        <mxCell id="Af6eF92gB9gsv9GVImaX-43" value="" style="endArrow=classic;html=1;rounded=0;entryX=0;entryY=0.2;entryDx=0;entryDy=0;entryPerimeter=0;exitX=0.54;exitY=0.6;exitDx=0;exitDy=0;exitPerimeter=0;" parent="1" source="Af6eF92gB9gsv9GVImaX-44" target="Af6eF92gB9gsv9GVImaX-39" edge="1">
          <mxGeometry width="50" height="50" relative="1" as="geometry">
            <mxPoint x="1370" y="300" as="sourcePoint" />
            <mxPoint x="1400" y="420" as="targetPoint" />
            <Array as="points">
              <mxPoint x="1370" y="410" />
            </Array>
          </mxGeometry>
        </mxCell>
        <mxCell id="Af6eF92gB9gsv9GVImaX-44" value="" style="shape=waypoint;sketch=0;size=6;pointerEvents=1;points=[];fillColor=none;resizable=0;rotatable=0;perimeter=centerPerimeter;snapToPoint=1;strokeWidth=0;" parent="1" vertex="1">
          <mxGeometry x="1360" y="260" width="20" height="20" as="geometry" />
        </mxCell>
        <mxCell id="Af6eF92gB9gsv9GVImaX-45" value="" style="endArrow=classic;html=1;rounded=0;entryX=0;entryY=0.2;entryDx=0;entryDy=0;entryPerimeter=0;exitX=0.937;exitY=0.521;exitDx=0;exitDy=0;exitPerimeter=0;" parent="1" source="Af6eF92gB9gsv9GVImaX-48" target="Af6eF92gB9gsv9GVImaX-40" edge="1">
          <mxGeometry width="50" height="50" relative="1" as="geometry">
            <mxPoint x="1360" y="410" as="sourcePoint" />
            <mxPoint x="1420" y="510" as="targetPoint" />
            <Array as="points">
              <mxPoint x="1370" y="510" />
            </Array>
          </mxGeometry>
        </mxCell>
        <mxCell id="Af6eF92gB9gsv9GVImaX-46" value="" style="endArrow=classic;html=1;rounded=0;entryX=0;entryY=0.8;entryDx=0;entryDy=0;entryPerimeter=0;" parent="1" target="Af6eF92gB9gsv9GVImaX-40" edge="1">
          <mxGeometry width="50" height="50" relative="1" as="geometry">
            <mxPoint x="1390" y="440" as="sourcePoint" />
            <mxPoint x="1410" y="500" as="targetPoint" />
            <Array as="points">
              <mxPoint x="1390" y="540" />
            </Array>
          </mxGeometry>
        </mxCell>
        <mxCell id="Af6eF92gB9gsv9GVImaX-36" value="&lt;b&gt;MUX&lt;/b&gt;" style="rounded=0;whiteSpace=wrap;html=1;fillColor=#dae8fc;strokeColor=#6c8ebf;" parent="1" vertex="1">
          <mxGeometry x="1310" y="410" width="40" height="59" as="geometry" />
        </mxCell>
        <mxCell id="Af6eF92gB9gsv9GVImaX-31" value="MUX&lt;br&gt;" style="rounded=0;whiteSpace=wrap;html=1;fillColor=#dae8fc;strokeColor=#6c8ebf;fontStyle=1" parent="1" vertex="1">
          <mxGeometry x="1310" y="240" width="40" height="60" as="geometry" />
        </mxCell>
        <mxCell id="Af6eF92gB9gsv9GVImaX-47" value="" style="endArrow=classic;html=1;rounded=0;entryX=0;entryY=0.8;entryDx=0;entryDy=0;entryPerimeter=0;" parent="1" target="Af6eF92gB9gsv9GVImaX-39" edge="1">
          <mxGeometry width="50" height="50" relative="1" as="geometry">
            <mxPoint x="1380" y="440" as="sourcePoint" />
            <mxPoint x="1400" y="450" as="targetPoint" />
          </mxGeometry>
        </mxCell>
        <mxCell id="Af6eF92gB9gsv9GVImaX-48" value="" style="shape=waypoint;sketch=0;size=6;pointerEvents=1;points=[];fillColor=none;resizable=0;rotatable=0;perimeter=centerPerimeter;snapToPoint=1;strokeWidth=0;" parent="1" vertex="1">
          <mxGeometry x="1360" y="400" width="20" height="20" as="geometry" />
        </mxCell>
        <mxCell id="Af6eF92gB9gsv9GVImaX-50" value="" style="shape=waypoint;sketch=0;size=6;pointerEvents=1;points=[];fillColor=none;resizable=0;rotatable=0;perimeter=centerPerimeter;snapToPoint=1;strokeWidth=0;" parent="1" vertex="1">
          <mxGeometry x="1380" y="429.5" width="20" height="20" as="geometry" />
        </mxCell>
        <mxCell id="Af6eF92gB9gsv9GVImaX-57" value="" style="endArrow=classic;html=1;rounded=0;entryX=0;entryY=0.837;entryDx=0;entryDy=0;entryPerimeter=0;exitX=0.998;exitY=0.495;exitDx=0;exitDy=0;exitPerimeter=0;" parent="1" target="Af6eF92gB9gsv9GVImaX-31" edge="1">
          <mxGeometry width="50" height="50" relative="1" as="geometry">
            <mxPoint x="1219.92" y="290.2049999999999" as="sourcePoint" />
            <mxPoint x="1270" y="290" as="targetPoint" />
            <Array as="points" />
          </mxGeometry>
        </mxCell>
        <mxCell id="Af6eF92gB9gsv9GVImaX-59" value="" style="endArrow=classic;html=1;rounded=0;exitX=1.006;exitY=0.419;exitDx=0;exitDy=0;exitPerimeter=0;" parent="1" edge="1">
          <mxGeometry width="50" height="50" relative="1" as="geometry">
            <mxPoint x="1080.48" y="309.5000000000002" as="sourcePoint" />
            <mxPoint x="1220" y="290" as="targetPoint" />
            <Array as="points">
              <mxPoint x="1120" y="310" />
              <mxPoint x="1120" y="290" />
            </Array>
          </mxGeometry>
        </mxCell>
        <mxCell id="Af6eF92gB9gsv9GVImaX-65" value="" style="endArrow=classic;html=1;rounded=0;exitX=1.004;exitY=0.3;exitDx=0;exitDy=0;entryX=0;entryY=0.167;entryDx=0;entryDy=0;entryPerimeter=0;exitPerimeter=0;" parent="1" target="Af6eF92gB9gsv9GVImaX-31" edge="1">
          <mxGeometry width="50" height="50" relative="1" as="geometry">
            <mxPoint x="1080.3200000000002" y="250" as="sourcePoint" />
            <mxPoint x="1220" y="180" as="targetPoint" />
            <Array as="points">
              <mxPoint x="1240" y="250" />
            </Array>
          </mxGeometry>
        </mxCell>
        <mxCell id="Af6eF92gB9gsv9GVImaX-75" value="" style="endArrow=classic;html=1;rounded=0;exitX=1;exitY=0.286;exitDx=0;exitDy=0;exitPerimeter=0;" parent="1" edge="1">
          <mxGeometry width="50" height="50" relative="1" as="geometry">
            <mxPoint x="1570" y="425.76" as="sourcePoint" />
            <mxPoint x="1810" y="426" as="targetPoint" />
          </mxGeometry>
        </mxCell>
        <mxCell id="Af6eF92gB9gsv9GVImaX-76" value="" style="endArrow=classic;html=1;rounded=0;exitX=1;exitY=0.286;exitDx=0;exitDy=0;exitPerimeter=0;" parent="1" edge="1">
          <mxGeometry width="50" height="50" relative="1" as="geometry">
            <mxPoint x="1570" y="524.76" as="sourcePoint" />
            <mxPoint x="1810" y="525" as="targetPoint" />
          </mxGeometry>
        </mxCell>
        <mxCell id="Af6eF92gB9gsv9GVImaX-82" value="" style="endArrow=classic;html=1;rounded=0;" parent="1" edge="1">
          <mxGeometry width="50" height="50" relative="1" as="geometry">
            <mxPoint x="1520" y="300" as="sourcePoint" />
            <mxPoint x="1680" y="300" as="targetPoint" />
          </mxGeometry>
        </mxCell>
        <mxCell id="Af6eF92gB9gsv9GVImaX-84" value="" style="endArrow=classic;html=1;rounded=0;exitX=1;exitY=0.5;exitDx=0;exitDy=0;entryX=0;entryY=0.125;entryDx=0;entryDy=0;entryPerimeter=0;" parent="1" source="Af6eF92gB9gsv9GVImaX-31" target="Af6eF92gB9gsv9GVImaX-38" edge="1">
          <mxGeometry width="50" height="50" relative="1" as="geometry">
            <mxPoint x="1330" y="290" as="sourcePoint" />
            <mxPoint x="1420" y="272" as="targetPoint" />
            <Array as="points" />
          </mxGeometry>
        </mxCell>
        <mxCell id="Af6eF92gB9gsv9GVImaX-85" value="" style="endArrow=classic;html=1;rounded=0;exitX=1.002;exitY=0.508;exitDx=0;exitDy=0;exitPerimeter=0;" parent="1" source="Af6eF92gB9gsv9GVImaX-36" edge="1">
          <mxGeometry width="50" height="50" relative="1" as="geometry">
            <mxPoint x="1360" y="440" as="sourcePoint" />
            <mxPoint x="1420" y="330" as="targetPoint" />
            <Array as="points">
              <mxPoint x="1390" y="440" />
              <mxPoint x="1390" y="330" />
            </Array>
          </mxGeometry>
        </mxCell>
        <mxCell id="Af6eF92gB9gsv9GVImaX-89" value="ADD 4" style="rounded=0;whiteSpace=wrap;html=1;fontStyle=1;fillColor=#dae8fc;strokeColor=#6c8ebf;" parent="1" vertex="1">
          <mxGeometry x="360" y="170" width="40" height="40" as="geometry" />
        </mxCell>
        <mxCell id="Af6eF92gB9gsv9GVImaX-91" value="" style="endArrow=classic;html=1;rounded=0;entryX=0;entryY=0.5;entryDx=0;entryDy=0;" parent="1" target="Af6eF92gB9gsv9GVImaX-89" edge="1">
          <mxGeometry width="50" height="50" relative="1" as="geometry">
            <mxPoint x="310" y="320" as="sourcePoint" />
            <mxPoint x="310" y="290" as="targetPoint" />
            <Array as="points">
              <mxPoint x="310" y="260" />
              <mxPoint x="310" y="190" />
            </Array>
          </mxGeometry>
        </mxCell>
        <mxCell id="Af6eF92gB9gsv9GVImaX-92" value="" style="endArrow=classic;html=1;rounded=0;" parent="1" edge="1">
          <mxGeometry width="50" height="50" relative="1" as="geometry">
            <mxPoint x="310" y="250" as="sourcePoint" />
            <mxPoint x="640" y="250" as="targetPoint" />
          </mxGeometry>
        </mxCell>
        <mxCell id="Af6eF92gB9gsv9GVImaX-93" value="" style="endArrow=classic;html=1;rounded=0;exitX=1;exitY=0.5;exitDx=0;exitDy=0;" parent="1" source="Af6eF92gB9gsv9GVImaX-89" edge="1">
          <mxGeometry width="50" height="50" relative="1" as="geometry">
            <mxPoint x="420" y="270" as="sourcePoint" />
            <mxPoint x="640" y="190" as="targetPoint" />
          </mxGeometry>
        </mxCell>
        <mxCell id="Af6eF92gB9gsv9GVImaX-94" value="" style="shape=waypoint;sketch=0;size=6;pointerEvents=1;points=[];fillColor=none;resizable=0;rotatable=0;perimeter=centerPerimeter;snapToPoint=1;strokeWidth=0;" parent="1" vertex="1">
          <mxGeometry x="300" y="240" width="20" height="20" as="geometry" />
        </mxCell>
        <mxCell id="Af6eF92gB9gsv9GVImaX-95" value="" style="shape=waypoint;sketch=0;size=6;pointerEvents=1;points=[];fillColor=none;resizable=0;rotatable=0;perimeter=centerPerimeter;snapToPoint=1;strokeWidth=0;" parent="1" vertex="1">
          <mxGeometry x="300" y="310" width="20" height="20" as="geometry" />
        </mxCell>
        <mxCell id="Af6eF92gB9gsv9GVImaX-96" value="" style="endArrow=classic;html=1;rounded=0;" parent="1" edge="1">
          <mxGeometry width="50" height="50" relative="1" as="geometry">
            <mxPoint x="440" y="190" as="sourcePoint" />
            <mxPoint x="160" y="320" as="targetPoint" />
            <Array as="points">
              <mxPoint x="440" y="150" />
              <mxPoint x="80" y="150" />
              <mxPoint x="80" y="320" />
            </Array>
          </mxGeometry>
        </mxCell>
        <mxCell id="Af6eF92gB9gsv9GVImaX-97" value="" style="shape=waypoint;sketch=0;size=6;pointerEvents=1;points=[];fillColor=none;resizable=0;rotatable=0;perimeter=centerPerimeter;snapToPoint=1;strokeWidth=0;" parent="1" vertex="1">
          <mxGeometry x="430" y="180" width="20" height="20" as="geometry" />
        </mxCell>
        <mxCell id="Af6eF92gB9gsv9GVImaX-98" value="" style="shape=waypoint;sketch=0;size=6;pointerEvents=1;points=[];fillColor=none;resizable=0;rotatable=0;perimeter=centerPerimeter;snapToPoint=1;strokeWidth=0;" parent="1" vertex="1">
          <mxGeometry x="1550" y="290" width="20" height="20" as="geometry" />
        </mxCell>
        <mxCell id="Af6eF92gB9gsv9GVImaX-99" value="" style="shape=waypoint;sketch=0;size=6;pointerEvents=1;points=[];fillColor=none;resizable=0;rotatable=0;perimeter=centerPerimeter;snapToPoint=1;strokeWidth=0;" parent="1" vertex="1">
          <mxGeometry x="760" y="390" width="20" height="20" as="geometry" />
        </mxCell>
        <mxCell id="Af6eF92gB9gsv9GVImaX-100" value="" style="endArrow=classic;html=1;rounded=0;exitX=1;exitY=0.224;exitDx=0;exitDy=0;exitPerimeter=0;" parent="1" edge="1">
          <mxGeometry width="50" height="50" relative="1" as="geometry">
            <mxPoint x="640" y="249.60000000000014" as="sourcePoint" />
            <mxPoint x="1080" y="250" as="targetPoint" />
          </mxGeometry>
        </mxCell>
        <mxCell id="Af6eF92gB9gsv9GVImaX-101" value="" style="endArrow=classic;html=1;rounded=0;exitX=1;exitY=0.224;exitDx=0;exitDy=0;exitPerimeter=0;" parent="1" edge="1">
          <mxGeometry width="50" height="50" relative="1" as="geometry">
            <mxPoint x="640" y="190.62" as="sourcePoint" />
            <mxPoint x="1080" y="191" as="targetPoint" />
          </mxGeometry>
        </mxCell>
        <mxCell id="Af6eF92gB9gsv9GVImaX-102" value="" style="endArrow=classic;html=1;rounded=0;" parent="1" edge="1">
          <mxGeometry width="50" height="50" relative="1" as="geometry">
            <mxPoint x="1080" y="190" as="sourcePoint" />
            <mxPoint x="1680" y="190" as="targetPoint" />
            <Array as="points">
              <mxPoint x="1230" y="190" />
            </Array>
          </mxGeometry>
        </mxCell>
        <mxCell id="Af6eF92gB9gsv9GVImaX-112" value="" style="endArrow=classic;html=1;rounded=0;entryX=0;entryY=0.4;entryDx=0;entryDy=0;entryPerimeter=0;exitX=1;exitY=0.714;exitDx=0;exitDy=0;exitPerimeter=0;" parent="1" edge="1">
          <mxGeometry width="50" height="50" relative="1" as="geometry">
            <mxPoint x="1680" y="299.91999999999996" as="sourcePoint" />
            <mxPoint x="2040" y="300" as="targetPoint" />
          </mxGeometry>
        </mxCell>
        <mxCell id="Af6eF92gB9gsv9GVImaX-114" value="" style="endArrow=classic;html=1;rounded=0;entryX=0;entryY=0.18;entryDx=0;entryDy=0;entryPerimeter=0;exitX=1;exitY=0.321;exitDx=0;exitDy=0;exitPerimeter=0;" parent="1" edge="1">
          <mxGeometry width="50" height="50" relative="1" as="geometry">
            <mxPoint x="1680" y="189.88" as="sourcePoint" />
            <mxPoint x="2040" y="190" as="targetPoint" />
          </mxGeometry>
        </mxCell>
        <mxCell id="Af6eF92gB9gsv9GVImaX-117" value="" style="shape=waypoint;sketch=0;size=6;pointerEvents=1;points=[];fillColor=none;resizable=0;rotatable=0;perimeter=centerPerimeter;snapToPoint=1;strokeWidth=0;" parent="1" vertex="1">
          <mxGeometry x="1830" y="290" width="20" height="20" as="geometry" />
        </mxCell>
        <mxCell id="Af6eF92gB9gsv9GVImaX-124" value="" style="endArrow=classic;html=1;rounded=0;exitX=1;exitY=0.5;exitDx=0;exitDy=0;entryX=0;entryY=0.85;entryDx=0;entryDy=0;entryPerimeter=0;" parent="1" edge="1">
          <mxGeometry width="50" height="50" relative="1" as="geometry">
            <mxPoint x="1810" y="525" as="sourcePoint" />
            <mxPoint x="2040" y="525" as="targetPoint" />
          </mxGeometry>
        </mxCell>
        <mxCell id="Af6eF92gB9gsv9GVImaX-125" value="" style="endArrow=classic;html=1;rounded=0;exitX=1.008;exitY=0.424;exitDx=0;exitDy=0;exitPerimeter=0;" parent="1" edge="1">
          <mxGeometry width="50" height="50" relative="1" as="geometry">
            <mxPoint x="1811" y="424.74" as="sourcePoint" />
            <mxPoint x="2040" y="424.74" as="targetPoint" />
          </mxGeometry>
        </mxCell>
        <mxCell id="Af6eF92gB9gsv9GVImaX-126" value="&lt;b&gt;MUX&lt;/b&gt;" style="rounded=0;whiteSpace=wrap;html=1;fillColor=#dae8fc;strokeColor=#6c8ebf;" parent="1" vertex="1">
          <mxGeometry x="2240" y="280" width="40" height="160" as="geometry" />
        </mxCell>
        <mxCell id="Af6eF92gB9gsv9GVImaX-127" value="WB_Sel" style="text;html=1;align=center;verticalAlign=middle;resizable=0;points=[];autosize=1;strokeColor=none;fillColor=none;" parent="1" vertex="1">
          <mxGeometry x="2225" y="440" width="70" height="30" as="geometry" />
        </mxCell>
        <mxCell id="Af6eF92gB9gsv9GVImaX-128" value="" style="endArrow=classic;html=1;rounded=0;entryX=0;entryY=0.25;entryDx=0;entryDy=0;" parent="1" target="Af6eF92gB9gsv9GVImaX-126" edge="1">
          <mxGeometry width="50" height="50" relative="1" as="geometry">
            <mxPoint x="2030" y="190" as="sourcePoint" />
            <mxPoint x="2240" y="300" as="targetPoint" />
            <Array as="points">
              <mxPoint x="2200" y="190" />
              <mxPoint x="2200" y="320" />
            </Array>
          </mxGeometry>
        </mxCell>
        <mxCell id="Af6eF92gB9gsv9GVImaX-129" value="" style="endArrow=classic;html=1;rounded=0;entryX=0;entryY=0.375;entryDx=0;entryDy=0;entryPerimeter=0;" parent="1" target="Af6eF92gB9gsv9GVImaX-126" edge="1">
          <mxGeometry width="50" height="50" relative="1" as="geometry">
            <mxPoint x="2040" y="300" as="sourcePoint" />
            <mxPoint x="2380" y="100" as="targetPoint" />
            <Array as="points">
              <mxPoint x="2180" y="300" />
              <mxPoint x="2180" y="340" />
            </Array>
          </mxGeometry>
        </mxCell>
        <mxCell id="Af6eF92gB9gsv9GVImaX-130" value="" style="endArrow=classic;html=1;rounded=0;" parent="1" edge="1">
          <mxGeometry width="50" height="50" relative="1" as="geometry">
            <mxPoint x="2040" y="170" as="sourcePoint" />
            <mxPoint x="2340" y="700" as="targetPoint" />
            <Array as="points">
              <mxPoint x="2160" y="170" />
              <mxPoint x="2340" y="170" />
            </Array>
          </mxGeometry>
        </mxCell>
        <mxCell id="Af6eF92gB9gsv9GVImaX-131" value="" style="endArrow=classic;html=1;rounded=0;entryX=0;entryY=0.625;entryDx=0;entryDy=0;entryPerimeter=0;" parent="1" target="Af6eF92gB9gsv9GVImaX-126" edge="1">
          <mxGeometry width="50" height="50" relative="1" as="geometry">
            <mxPoint x="2030" y="425" as="sourcePoint" />
            <mxPoint x="2237.92" y="385.15999999999997" as="targetPoint" />
            <Array as="points">
              <mxPoint x="2180" y="425" />
              <mxPoint x="2180" y="380" />
            </Array>
          </mxGeometry>
        </mxCell>
        <mxCell id="Af6eF92gB9gsv9GVImaX-132" value="" style="endArrow=classic;html=1;rounded=0;entryX=0;entryY=0.75;entryDx=0;entryDy=0;" parent="1" target="Af6eF92gB9gsv9GVImaX-126" edge="1">
          <mxGeometry width="50" height="50" relative="1" as="geometry">
            <mxPoint x="2030" y="525" as="sourcePoint" />
            <mxPoint x="2240" y="480" as="targetPoint" />
            <Array as="points">
              <mxPoint x="2200" y="525" />
              <mxPoint x="2200" y="400" />
            </Array>
          </mxGeometry>
        </mxCell>
        <mxCell id="Af6eF92gB9gsv9GVImaX-134" value="" style="endArrow=classic;html=1;rounded=0;exitX=1;exitY=0.5;exitDx=0;exitDy=0;" parent="1" source="Af6eF92gB9gsv9GVImaX-126" edge="1">
          <mxGeometry width="50" height="50" relative="1" as="geometry">
            <mxPoint x="2240" y="660" as="sourcePoint" />
            <mxPoint x="2320" y="680" as="targetPoint" />
            <Array as="points">
              <mxPoint x="2320" y="360" />
            </Array>
          </mxGeometry>
        </mxCell>
        <mxCell id="Af6eF92gB9gsv9GVImaX-137" value="" style="endArrow=classic;html=1;rounded=0;entryX=0;entryY=0.857;entryDx=0;entryDy=0;entryPerimeter=0;" parent="1" target="Af6eF92gB9gsv9GVImaX-18" edge="1">
          <mxGeometry width="50" height="50" relative="1" as="geometry">
            <mxPoint x="2320.459826239224" y="680" as="sourcePoint" />
            <mxPoint x="670" y="630" as="targetPoint" />
            <Array as="points">
              <mxPoint x="810" y="680" />
              <mxPoint x="810" y="470" />
            </Array>
          </mxGeometry>
        </mxCell>
        <mxCell id="Af6eF92gB9gsv9GVImaX-141" value="GR[rj]" style="text;html=1;strokeColor=none;fillColor=none;align=center;verticalAlign=middle;whiteSpace=wrap;rounded=0;fontStyle=1" parent="1" vertex="1">
          <mxGeometry x="939.5" y="293" width="30" height="20" as="geometry" />
        </mxCell>
        <mxCell id="Af6eF92gB9gsv9GVImaX-142" value="GR[rk]/GR[rd]" style="text;html=1;strokeColor=none;fillColor=none;align=center;verticalAlign=middle;whiteSpace=wrap;rounded=0;fontStyle=1" parent="1" vertex="1">
          <mxGeometry x="930" y="380" width="49" height="20" as="geometry" />
        </mxCell>
        <mxCell id="Af6eF92gB9gsv9GVImaX-143" value="" style="endArrow=classic;html=1;rounded=0;strokeColor=#000000;" parent="1" edge="1">
          <mxGeometry width="50" height="50" relative="1" as="geometry">
            <mxPoint x="750" y="310" as="sourcePoint" />
            <mxPoint x="1080" y="170" as="targetPoint" />
            <Array as="points">
              <mxPoint x="770" y="310" />
              <mxPoint x="770" y="170" />
            </Array>
          </mxGeometry>
        </mxCell>
        <mxCell id="Af6eF92gB9gsv9GVImaX-145" value="" style="endArrow=classic;html=1;rounded=0;exitX=0.997;exitY=0.14;exitDx=0;exitDy=0;exitPerimeter=0;strokeColor=#000000;" parent="1" edge="1">
          <mxGeometry width="50" height="50" relative="1" as="geometry">
            <mxPoint x="1079.7600000000002" y="170" as="sourcePoint" />
            <mxPoint x="1680" y="170" as="targetPoint" />
          </mxGeometry>
        </mxCell>
        <mxCell id="Af6eF92gB9gsv9GVImaX-146" value="" style="endArrow=classic;html=1;rounded=0;exitX=1.002;exitY=0.668;exitDx=0;exitDy=0;exitPerimeter=0;strokeColor=#000000;" parent="1" edge="1">
          <mxGeometry width="50" height="50" relative="1" as="geometry">
            <mxPoint x="1680" y="170" as="sourcePoint" />
            <mxPoint x="2040" y="170" as="targetPoint" />
          </mxGeometry>
        </mxCell>
        <mxCell id="Af6eF92gB9gsv9GVImaX-154" value="" style="shape=waypoint;sketch=0;size=6;pointerEvents=1;points=[];fillColor=none;resizable=0;rotatable=0;perimeter=centerPerimeter;snapToPoint=1;strokeWidth=0;strokeColor=#3399FF;" parent="1" vertex="1">
          <mxGeometry x="1090" y="160" width="20" height="20" as="geometry" />
        </mxCell>
        <mxCell id="Af6eF92gB9gsv9GVImaX-156" value="" style="shape=waypoint;sketch=0;size=6;pointerEvents=1;points=[];fillColor=none;resizable=0;rotatable=0;perimeter=centerPerimeter;snapToPoint=1;strokeWidth=0;strokeColor=#3399FF;" parent="1" vertex="1">
          <mxGeometry x="760" y="160" width="20" height="20" as="geometry" />
        </mxCell>
        <mxCell id="Af6eF92gB9gsv9GVImaX-158" value="GR[rj]&lt;br style=&quot;font-size: 7px;&quot;&gt;/PC" style="text;html=1;strokeColor=none;fillColor=none;align=center;verticalAlign=middle;whiteSpace=wrap;rounded=0;fontStyle=1;fontSize=7;" parent="1" vertex="1">
          <mxGeometry x="1315" y="280.5" width="30" height="20" as="geometry" />
        </mxCell>
        <mxCell id="Af6eF92gB9gsv9GVImaX-159" value="GR[rk]/GR[rd]&lt;br style=&quot;font-size: 5px;&quot;&gt;/imm" style="text;html=1;strokeColor=none;fillColor=none;align=center;verticalAlign=middle;whiteSpace=wrap;rounded=0;fontStyle=1;fontSize=5;" parent="1" vertex="1">
          <mxGeometry x="1317.5" y="453" width="25" height="9" as="geometry" />
        </mxCell>
        <mxCell id="Af6eF92gB9gsv9GVImaX-160" value="RF_waddr" style="text;html=1;strokeColor=none;fillColor=none;align=center;verticalAlign=middle;whiteSpace=wrap;rounded=0;fontStyle=1" parent="1" vertex="1">
          <mxGeometry x="2101.5" y="698" width="40" height="20" as="geometry" />
        </mxCell>
        <mxCell id="Af6eF92gB9gsv9GVImaX-172" value="RF_din" style="text;html=1;strokeColor=none;fillColor=none;align=center;verticalAlign=middle;whiteSpace=wrap;rounded=0;fontStyle=1" parent="1" vertex="1">
          <mxGeometry x="2107" y="660" width="29" height="20" as="geometry" />
        </mxCell>
        <mxCell id="Af6eF92gB9gsv9GVImaX-190" value="" style="shape=waypoint;sketch=0;size=6;pointerEvents=1;points=[];fillColor=none;resizable=0;rotatable=0;perimeter=centerPerimeter;snapToPoint=1;strokeWidth=0;" parent="1" vertex="1">
          <mxGeometry x="1250" y="280" width="20" height="20" as="geometry" />
        </mxCell>
        <mxCell id="Af6eF92gB9gsv9GVImaX-192" value="" style="shape=waypoint;sketch=0;size=6;pointerEvents=1;points=[];fillColor=none;resizable=0;rotatable=0;perimeter=centerPerimeter;snapToPoint=1;strokeWidth=0;" parent="1" vertex="1">
          <mxGeometry x="1270" y="410.5" width="20" height="20" as="geometry" />
        </mxCell>
        <mxCell id="E-aEBJzv57lBiL56rMNJ-2" value="" style="endArrow=classic;html=1;rounded=0;exitX=1.005;exitY=0.488;exitDx=0;exitDy=0;entryX=0;entryY=0.169;entryDx=0;entryDy=0;entryPerimeter=0;exitPerimeter=0;" parent="1" target="Af6eF92gB9gsv9GVImaX-36" edge="1">
          <mxGeometry width="50" height="50" relative="1" as="geometry">
            <mxPoint x="1220.1999999999998" y="419.7919999999999" as="sourcePoint" />
            <mxPoint x="1340" y="350" as="targetPoint" />
          </mxGeometry>
        </mxCell>
        <mxCell id="E-aEBJzv57lBiL56rMNJ-5" value="" style="shape=waypoint;sketch=0;size=6;pointerEvents=1;points=[];fillColor=none;resizable=0;rotatable=0;perimeter=centerPerimeter;snapToPoint=1;strokeWidth=0;" parent="1" vertex="1">
          <mxGeometry x="1270" y="360" width="20" height="20" as="geometry" />
        </mxCell>
        <mxCell id="E-aEBJzv57lBiL56rMNJ-6" value="" style="endArrow=classic;html=1;rounded=0;exitX=1.007;exitY=0.6;exitDx=0;exitDy=0;exitPerimeter=0;" parent="1" edge="1">
          <mxGeometry width="50" height="50" relative="1" as="geometry">
            <mxPoint x="1080.56" y="400" as="sourcePoint" />
            <mxPoint x="1220" y="420" as="targetPoint" />
            <Array as="points">
              <mxPoint x="1120" y="400" />
              <mxPoint x="1120" y="420" />
            </Array>
          </mxGeometry>
        </mxCell>
        <mxCell id="cl0XH91jL7pWerhAMvmy-1" value="IMM" style="text;html=1;strokeColor=none;fillColor=none;align=center;verticalAlign=middle;whiteSpace=wrap;rounded=0;fontStyle=1" parent="1" vertex="1">
          <mxGeometry x="740" y="441.5" width="30" height="20" as="geometry" />
        </mxCell>
        <mxCell id="cl0XH91jL7pWerhAMvmy-6" value="" style="endArrow=classic;html=1;rounded=0;entryX=0;entryY=0.847;entryDx=0;entryDy=0;entryPerimeter=0;exitX=1;exitY=0.92;exitDx=0;exitDy=0;exitPerimeter=0;" parent="1" target="Af6eF92gB9gsv9GVImaX-36" edge="1">
          <mxGeometry width="50" height="50" relative="1" as="geometry">
            <mxPoint x="1080" y="560" as="sourcePoint" />
            <mxPoint x="1190" y="540" as="targetPoint" />
            <Array as="points">
              <mxPoint x="1280" y="560" />
              <mxPoint x="1280" y="460" />
            </Array>
          </mxGeometry>
        </mxCell>
        <mxCell id="KvcFe8U6ZTAkRATW3uwT-1" value="PC&lt;br&gt;32b" style="rounded=0;whiteSpace=wrap;html=1;fontStyle=1;fillColor=#d5e8d4;strokeColor=#82b366;" parent="1" vertex="1">
          <mxGeometry x="720" y="1040" width="40" height="80" as="geometry" />
        </mxCell>
        <mxCell id="KvcFe8U6ZTAkRATW3uwT-2" value="ADD 4" style="rounded=0;whiteSpace=wrap;html=1;fontStyle=1;fillColor=#dae8fc;strokeColor=#6c8ebf;" parent="1" vertex="1">
          <mxGeometry x="720" y="960" width="40" height="40" as="geometry" />
        </mxCell>
        <mxCell id="KvcFe8U6ZTAkRATW3uwT-3" value="" style="endArrow=classic;html=1;rounded=0;exitX=1;exitY=0.5;exitDx=0;exitDy=0;entryX=1;entryY=0.5;entryDx=0;entryDy=0;" parent="1" source="KvcFe8U6ZTAkRATW3uwT-1" target="KvcFe8U6ZTAkRATW3uwT-2" edge="1">
          <mxGeometry width="50" height="50" relative="1" as="geometry">
            <mxPoint x="830" y="1090" as="sourcePoint" />
            <mxPoint x="880" y="1040" as="targetPoint" />
            <Array as="points">
              <mxPoint x="800" y="1080" />
              <mxPoint x="800" y="980" />
            </Array>
          </mxGeometry>
        </mxCell>
        <mxCell id="KvcFe8U6ZTAkRATW3uwT-4" value="" style="endArrow=classic;html=1;rounded=0;entryX=0;entryY=0.5;entryDx=0;entryDy=0;exitX=0;exitY=0.5;exitDx=0;exitDy=0;" parent="1" source="KvcFe8U6ZTAkRATW3uwT-2" target="KvcFe8U6ZTAkRATW3uwT-1" edge="1">
          <mxGeometry width="50" height="50" relative="1" as="geometry">
            <mxPoint x="650" y="1040" as="sourcePoint" />
            <mxPoint x="700" y="990" as="targetPoint" />
            <Array as="points">
              <mxPoint x="680" y="980" />
              <mxPoint x="680" y="1080" />
            </Array>
          </mxGeometry>
        </mxCell>
        <mxCell id="KvcFe8U6ZTAkRATW3uwT-5" value="DECODER" style="rounded=0;whiteSpace=wrap;html=1;fillColor=#dae8fc;strokeColor=#6c8ebf;fontStyle=1" parent="1" vertex="1">
          <mxGeometry x="1000" y="1040" width="80" height="80" as="geometry" />
        </mxCell>
        <mxCell id="KvcFe8U6ZTAkRATW3uwT-6" value="IM" style="rounded=0;whiteSpace=wrap;html=1;fillColor=#e1d5e7;strokeColor=#9673a6;fontStyle=1" parent="1" vertex="1">
          <mxGeometry x="840" y="1240" width="120" height="60" as="geometry" />
        </mxCell>
        <mxCell id="KvcFe8U6ZTAkRATW3uwT-7" value="" style="endArrow=classic;html=1;rounded=0;entryX=0.333;entryY=0;entryDx=0;entryDy=0;entryPerimeter=0;" parent="1" target="KvcFe8U6ZTAkRATW3uwT-6" edge="1">
          <mxGeometry width="50" height="50" relative="1" as="geometry">
            <mxPoint x="800" y="1080" as="sourcePoint" />
            <mxPoint x="950" y="1050" as="targetPoint" />
            <Array as="points">
              <mxPoint x="880" y="1080" />
            </Array>
          </mxGeometry>
        </mxCell>
        <mxCell id="KvcFe8U6ZTAkRATW3uwT-8" value="" style="endArrow=classic;html=1;rounded=0;entryX=0;entryY=0.5;entryDx=0;entryDy=0;" parent="1" target="KvcFe8U6ZTAkRATW3uwT-5" edge="1">
          <mxGeometry width="50" height="50" relative="1" as="geometry">
            <mxPoint x="920" y="1240" as="sourcePoint" />
            <mxPoint x="1030" y="1170" as="targetPoint" />
            <Array as="points">
              <mxPoint x="920" y="1080" />
            </Array>
          </mxGeometry>
        </mxCell>
        <mxCell id="KvcFe8U6ZTAkRATW3uwT-9" value="" style="shape=waypoint;sketch=0;size=6;pointerEvents=1;points=[];fillColor=none;resizable=0;rotatable=0;perimeter=centerPerimeter;snapToPoint=1;" parent="1" vertex="1">
          <mxGeometry x="790" y="1070" width="20" height="20" as="geometry" />
        </mxCell>
        <mxCell id="KvcFe8U6ZTAkRATW3uwT-10" value="GLOBAL&lt;br&gt;REGFILE&lt;br&gt;&lt;br&gt;32x32b" style="rounded=0;whiteSpace=wrap;html=1;fontStyle=1;fillColor=#d5e8d4;strokeColor=#82b366;" parent="1" vertex="1">
          <mxGeometry x="1200" y="1040" width="80" height="210" as="geometry" />
        </mxCell>
        <mxCell id="KvcFe8U6ZTAkRATW3uwT-11" value="" style="endArrow=classic;html=1;rounded=0;exitX=1;exitY=0.5;exitDx=0;exitDy=0;entryX=0;entryY=0.19;entryDx=0;entryDy=0;entryPerimeter=0;" parent="1" source="KvcFe8U6ZTAkRATW3uwT-5" target="KvcFe8U6ZTAkRATW3uwT-10" edge="1">
          <mxGeometry width="50" height="50" relative="1" as="geometry">
            <mxPoint x="1100" y="940" as="sourcePoint" />
            <mxPoint x="1150" y="890" as="targetPoint" />
          </mxGeometry>
        </mxCell>
        <mxCell id="KvcFe8U6ZTAkRATW3uwT-12" value="rf_ra0" style="text;html=1;strokeColor=none;fillColor=none;align=center;verticalAlign=middle;whiteSpace=wrap;rounded=0;fontStyle=1" parent="1" vertex="1">
          <mxGeometry x="1167.5" y="1060" width="20" height="20" as="geometry" />
        </mxCell>
        <mxCell id="KvcFe8U6ZTAkRATW3uwT-13" value="" style="endArrow=classic;html=1;rounded=0;" parent="1" edge="1">
          <mxGeometry width="50" height="50" relative="1" as="geometry">
            <mxPoint x="1120" y="1080" as="sourcePoint" />
            <mxPoint x="1200" y="1140" as="targetPoint" />
            <Array as="points">
              <mxPoint x="1120" y="1140" />
            </Array>
          </mxGeometry>
        </mxCell>
        <mxCell id="KvcFe8U6ZTAkRATW3uwT-14" value="rf_ra1" style="text;html=1;strokeColor=none;fillColor=none;align=center;verticalAlign=middle;whiteSpace=wrap;rounded=0;fontStyle=1" parent="1" vertex="1">
          <mxGeometry x="1162.5" y="1125" width="30" height="10" as="geometry" />
        </mxCell>
        <mxCell id="KvcFe8U6ZTAkRATW3uwT-15" value="" style="endArrow=classic;html=1;rounded=0;entryX=0;entryY=0.762;entryDx=0;entryDy=0;entryPerimeter=0;" parent="1" target="KvcFe8U6ZTAkRATW3uwT-10" edge="1">
          <mxGeometry width="50" height="50" relative="1" as="geometry">
            <mxPoint x="1120" y="1140" as="sourcePoint" />
            <mxPoint x="1050" y="1190" as="targetPoint" />
            <Array as="points">
              <mxPoint x="1120" y="1200" />
            </Array>
          </mxGeometry>
        </mxCell>
        <mxCell id="KvcFe8U6ZTAkRATW3uwT-16" value="rf_wa" style="text;html=1;strokeColor=none;fillColor=none;align=center;verticalAlign=middle;whiteSpace=wrap;rounded=0;fontStyle=1" parent="1" vertex="1">
          <mxGeometry x="1160" y="1180" width="32.5" height="20" as="geometry" />
        </mxCell>
        <mxCell id="KvcFe8U6ZTAkRATW3uwT-17" value="" style="endArrow=classic;html=1;rounded=0;exitX=1;exitY=0.19;exitDx=0;exitDy=0;exitPerimeter=0;entryX=0;entryY=0.75;entryDx=0;entryDy=0;" parent="1" source="KvcFe8U6ZTAkRATW3uwT-10" target="KvcFe8U6ZTAkRATW3uwT-21" edge="1">
          <mxGeometry width="50" height="50" relative="1" as="geometry">
            <mxPoint x="1360" y="1100" as="sourcePoint" />
            <mxPoint x="1410" y="1050" as="targetPoint" />
            <Array as="points">
              <mxPoint x="1360" y="1080" />
              <mxPoint x="1360" y="1060" />
            </Array>
          </mxGeometry>
        </mxCell>
        <mxCell id="KvcFe8U6ZTAkRATW3uwT-18" value="rf_rd0" style="text;html=1;strokeColor=none;fillColor=none;align=center;verticalAlign=middle;whiteSpace=wrap;rounded=0;fontStyle=1" parent="1" vertex="1">
          <mxGeometry x="1300" y="1060" width="30" height="20" as="geometry" />
        </mxCell>
        <mxCell id="KvcFe8U6ZTAkRATW3uwT-19" value="rf_rd1" style="text;html=1;strokeColor=none;fillColor=none;align=center;verticalAlign=middle;whiteSpace=wrap;rounded=0;fontStyle=1" parent="1" vertex="1">
          <mxGeometry x="1290" y="1120" width="49" height="20" as="geometry" />
        </mxCell>
        <mxCell id="KvcFe8U6ZTAkRATW3uwT-20" value="&lt;b&gt;MUX&lt;/b&gt;" style="rounded=0;whiteSpace=wrap;html=1;fillColor=#dae8fc;strokeColor=#6c8ebf;" parent="1" vertex="1">
          <mxGeometry x="1440" y="1120" width="40" height="80" as="geometry" />
        </mxCell>
        <mxCell id="KvcFe8U6ZTAkRATW3uwT-21" value="MUX&lt;br&gt;" style="rounded=0;whiteSpace=wrap;html=1;fillColor=#dae8fc;strokeColor=#6c8ebf;fontStyle=1" parent="1" vertex="1">
          <mxGeometry x="1440" y="1000" width="40" height="80" as="geometry" />
        </mxCell>
        <mxCell id="KvcFe8U6ZTAkRATW3uwT-22" value="rf_rd0/pc" style="text;html=1;strokeColor=none;fillColor=none;align=center;verticalAlign=middle;whiteSpace=wrap;rounded=0;fontStyle=1;fontSize=7;" parent="1" vertex="1">
          <mxGeometry x="1445" y="1050" width="30" height="20" as="geometry" />
        </mxCell>
        <mxCell id="KvcFe8U6ZTAkRATW3uwT-23" value="&lt;font style=&quot;font-size: 7px;&quot;&gt;rf_rd1/imm&lt;/font&gt;" style="text;html=1;strokeColor=none;fillColor=none;align=center;verticalAlign=middle;whiteSpace=wrap;rounded=0;fontStyle=1;fontSize=5;" parent="1" vertex="1">
          <mxGeometry x="1447.5" y="1177" width="25" height="9" as="geometry" />
        </mxCell>
        <mxCell id="KvcFe8U6ZTAkRATW3uwT-24" value="" style="endArrow=classic;html=1;rounded=0;entryX=0;entryY=0.25;entryDx=0;entryDy=0;" parent="1" target="KvcFe8U6ZTAkRATW3uwT-21" edge="1">
          <mxGeometry width="50" height="50" relative="1" as="geometry">
            <mxPoint x="800" y="1020" as="sourcePoint" />
            <mxPoint x="1000" y="900" as="targetPoint" />
          </mxGeometry>
        </mxCell>
        <mxCell id="KvcFe8U6ZTAkRATW3uwT-25" value="" style="shape=waypoint;sketch=0;size=6;pointerEvents=1;points=[];fillColor=none;resizable=0;rotatable=0;perimeter=centerPerimeter;snapToPoint=1;" parent="1" vertex="1">
          <mxGeometry x="790" y="1010" width="20" height="20" as="geometry" />
        </mxCell>
        <mxCell id="KvcFe8U6ZTAkRATW3uwT-26" value="ALU" style="rounded=0;whiteSpace=wrap;html=1;fontStyle=1;fillColor=#dae8fc;strokeColor=#6c8ebf;" parent="1" vertex="1">
          <mxGeometry x="1560" y="1040" width="120" height="120" as="geometry" />
        </mxCell>
        <mxCell id="KvcFe8U6ZTAkRATW3uwT-28" value="" style="endArrow=classic;html=1;rounded=0;exitX=1;exitY=0.5;exitDx=0;exitDy=0;entryX=0;entryY=0.167;entryDx=0;entryDy=0;entryPerimeter=0;" parent="1" source="KvcFe8U6ZTAkRATW3uwT-21" target="KvcFe8U6ZTAkRATW3uwT-26" edge="1">
          <mxGeometry width="50" height="50" relative="1" as="geometry">
            <mxPoint x="1470" y="1030" as="sourcePoint" />
            <mxPoint x="1520" y="980" as="targetPoint" />
            <Array as="points">
              <mxPoint x="1520" y="1040" />
              <mxPoint x="1520" y="1060" />
            </Array>
          </mxGeometry>
        </mxCell>
        <mxCell id="KvcFe8U6ZTAkRATW3uwT-29" value="" style="endArrow=classic;html=1;rounded=0;exitX=1;exitY=0.5;exitDx=0;exitDy=0;entryX=0;entryY=0.833;entryDx=0;entryDy=0;entryPerimeter=0;" parent="1" source="KvcFe8U6ZTAkRATW3uwT-20" target="KvcFe8U6ZTAkRATW3uwT-26" edge="1">
          <mxGeometry width="50" height="50" relative="1" as="geometry">
            <mxPoint x="1490" y="1140" as="sourcePoint" />
            <mxPoint x="1558" y="1130" as="targetPoint" />
            <Array as="points">
              <mxPoint x="1520" y="1160" />
              <mxPoint x="1520" y="1140" />
            </Array>
          </mxGeometry>
        </mxCell>
        <mxCell id="KvcFe8U6ZTAkRATW3uwT-30" value="" style="endArrow=classic;html=1;rounded=0;exitX=1;exitY=0.476;exitDx=0;exitDy=0;exitPerimeter=0;entryX=0;entryY=0.25;entryDx=0;entryDy=0;" parent="1" source="KvcFe8U6ZTAkRATW3uwT-10" target="KvcFe8U6ZTAkRATW3uwT-20" edge="1">
          <mxGeometry width="50" height="50" relative="1" as="geometry">
            <mxPoint x="1330" y="1160" as="sourcePoint" />
            <mxPoint x="1380" y="1110" as="targetPoint" />
          </mxGeometry>
        </mxCell>
        <mxCell id="KvcFe8U6ZTAkRATW3uwT-31" value="" style="endArrow=classic;html=1;rounded=0;entryX=0;entryY=0.75;entryDx=0;entryDy=0;" parent="1" target="KvcFe8U6ZTAkRATW3uwT-20" edge="1">
          <mxGeometry width="50" height="50" relative="1" as="geometry">
            <mxPoint x="1120" y="1200" as="sourcePoint" />
            <mxPoint x="1290" y="1290" as="targetPoint" />
            <Array as="points">
              <mxPoint x="1120" y="1280" />
              <mxPoint x="1400" y="1280" />
              <mxPoint x="1400" y="1180" />
            </Array>
          </mxGeometry>
        </mxCell>
        <mxCell id="KvcFe8U6ZTAkRATW3uwT-32" value="imm" style="text;html=1;strokeColor=none;fillColor=none;align=center;verticalAlign=middle;whiteSpace=wrap;rounded=0;fontStyle=1" parent="1" vertex="1">
          <mxGeometry x="1299.5" y="1260" width="30" height="20" as="geometry" />
        </mxCell>
        <mxCell id="KvcFe8U6ZTAkRATW3uwT-33" value="pc" style="text;html=1;strokeColor=none;fillColor=none;align=center;verticalAlign=middle;whiteSpace=wrap;rounded=0;fontStyle=1" parent="1" vertex="1">
          <mxGeometry x="800" y="1060" width="30" height="20" as="geometry" />
        </mxCell>
        <mxCell id="KvcFe8U6ZTAkRATW3uwT-36" value="" style="endArrow=classic;html=1;rounded=0;exitX=1;exitY=0.5;exitDx=0;exitDy=0;entryX=0;entryY=0.952;entryDx=0;entryDy=0;entryPerimeter=0;" parent="1" source="KvcFe8U6ZTAkRATW3uwT-26" target="KvcFe8U6ZTAkRATW3uwT-10" edge="1">
          <mxGeometry width="50" height="50" relative="1" as="geometry">
            <mxPoint x="1600" y="1260" as="sourcePoint" />
            <mxPoint x="1190" y="1350" as="targetPoint" />
            <Array as="points">
              <mxPoint x="1720" y="1100" />
              <mxPoint x="1720" y="1320" />
              <mxPoint x="1160" y="1320" />
              <mxPoint x="1160" y="1240" />
            </Array>
          </mxGeometry>
        </mxCell>
        <mxCell id="KvcFe8U6ZTAkRATW3uwT-37" value="alu_res" style="text;html=1;strokeColor=none;fillColor=none;align=center;verticalAlign=middle;whiteSpace=wrap;rounded=0;fontStyle=1" parent="1" vertex="1">
          <mxGeometry x="1640" y="1293" width="60" height="30" as="geometry" />
        </mxCell>
        <mxCell id="wtbYi6GZdxYj_9KWXV_w-1" value="PC" style="rounded=0;whiteSpace=wrap;html=1;fontStyle=1;fillColor=#d5e8d4;strokeColor=#82b366;" parent="1" vertex="1">
          <mxGeometry x="800" y="1360" width="40" height="80" as="geometry" />
        </mxCell>
        <mxCell id="wtbYi6GZdxYj_9KWXV_w-2" value="" style="endArrow=classic;html=1;rounded=0;entryX=0;entryY=0.125;entryDx=0;entryDy=0;entryPerimeter=0;" parent="1" target="wtbYi6GZdxYj_9KWXV_w-1" edge="1">
          <mxGeometry width="50" height="50" relative="1" as="geometry">
            <mxPoint x="760" y="1370" as="sourcePoint" />
            <mxPoint x="780" y="1330" as="targetPoint" />
          </mxGeometry>
        </mxCell>
        <mxCell id="wtbYi6GZdxYj_9KWXV_w-3" value="clk, rst" style="text;html=1;strokeColor=none;fillColor=none;align=center;verticalAlign=middle;whiteSpace=wrap;rounded=0;" parent="1" vertex="1">
          <mxGeometry x="720" y="1365" width="38" height="10" as="geometry" />
        </mxCell>
        <mxCell id="wtbYi6GZdxYj_9KWXV_w-4" value="" style="endArrow=classic;html=1;rounded=0;entryX=0;entryY=0.5;entryDx=0;entryDy=0;" parent="1" target="wtbYi6GZdxYj_9KWXV_w-1" edge="1">
          <mxGeometry width="50" height="50" relative="1" as="geometry">
            <mxPoint x="760" y="1400" as="sourcePoint" />
            <mxPoint x="790" y="1390" as="targetPoint" />
          </mxGeometry>
        </mxCell>
        <mxCell id="wtbYi6GZdxYj_9KWXV_w-5" value="en" style="text;html=1;strokeColor=none;fillColor=none;align=center;verticalAlign=middle;whiteSpace=wrap;rounded=0;" parent="1" vertex="1">
          <mxGeometry x="740" y="1396" width="20" height="5" as="geometry" />
        </mxCell>
        <mxCell id="wtbYi6GZdxYj_9KWXV_w-6" value="" style="endArrow=classic;html=1;rounded=0;entryX=0;entryY=0.875;entryDx=0;entryDy=0;entryPerimeter=0;strokeWidth=2;" parent="1" target="wtbYi6GZdxYj_9KWXV_w-1" edge="1">
          <mxGeometry width="50" height="50" relative="1" as="geometry">
            <mxPoint x="760" y="1430" as="sourcePoint" />
            <mxPoint x="800" y="1440" as="targetPoint" />
          </mxGeometry>
        </mxCell>
        <mxCell id="wtbYi6GZdxYj_9KWXV_w-7" value="npc" style="text;html=1;strokeColor=none;fillColor=none;align=center;verticalAlign=middle;whiteSpace=wrap;rounded=0;fontStyle=1" parent="1" vertex="1">
          <mxGeometry x="738" y="1425" width="17" height="10" as="geometry" />
        </mxCell>
        <mxCell id="wtbYi6GZdxYj_9KWXV_w-8" value="" style="endArrow=classic;html=1;rounded=0;entryX=0;entryY=0.875;entryDx=0;entryDy=0;entryPerimeter=0;strokeWidth=2;" parent="1" edge="1">
          <mxGeometry width="50" height="50" relative="1" as="geometry">
            <mxPoint x="840" y="1399.86" as="sourcePoint" />
            <mxPoint x="880" y="1399.86" as="targetPoint" />
          </mxGeometry>
        </mxCell>
        <mxCell id="wtbYi6GZdxYj_9KWXV_w-9" value="pc" style="text;html=1;strokeColor=none;fillColor=none;align=center;verticalAlign=middle;whiteSpace=wrap;rounded=0;fontStyle=1" parent="1" vertex="1">
          <mxGeometry x="885" y="1391" width="10" height="15" as="geometry" />
        </mxCell>
        <mxCell id="wtbYi6GZdxYj_9KWXV_w-12" value="" style="group" parent="1" vertex="1" connectable="0">
          <mxGeometry x="764.5" y="1418" width="15.5" height="22" as="geometry" />
        </mxCell>
        <mxCell id="wtbYi6GZdxYj_9KWXV_w-10" value="" style="endArrow=none;html=1;rounded=0;" parent="wtbYi6GZdxYj_9KWXV_w-12" edge="1">
          <mxGeometry width="50" height="50" relative="1" as="geometry">
            <mxPoint x="5.5" y="22" as="sourcePoint" />
            <mxPoint x="15.5" y="2" as="targetPoint" />
          </mxGeometry>
        </mxCell>
        <mxCell id="wtbYi6GZdxYj_9KWXV_w-11" value="32" style="text;html=1;strokeColor=none;fillColor=none;align=center;verticalAlign=middle;whiteSpace=wrap;rounded=0;fontSize=6;" parent="wtbYi6GZdxYj_9KWXV_w-12" vertex="1">
          <mxGeometry width="11" height="11" as="geometry" />
        </mxCell>
        <mxCell id="wtbYi6GZdxYj_9KWXV_w-13" value="" style="group" parent="1" vertex="1" connectable="0">
          <mxGeometry x="844" y="1388" width="15.5" height="22" as="geometry" />
        </mxCell>
        <mxCell id="wtbYi6GZdxYj_9KWXV_w-14" value="" style="endArrow=none;html=1;rounded=0;" parent="wtbYi6GZdxYj_9KWXV_w-13" edge="1">
          <mxGeometry width="50" height="50" relative="1" as="geometry">
            <mxPoint x="5.5" y="22" as="sourcePoint" />
            <mxPoint x="15.5" y="2" as="targetPoint" />
          </mxGeometry>
        </mxCell>
        <mxCell id="wtbYi6GZdxYj_9KWXV_w-15" value="32" style="text;html=1;strokeColor=none;fillColor=none;align=center;verticalAlign=middle;whiteSpace=wrap;rounded=0;fontSize=6;" parent="wtbYi6GZdxYj_9KWXV_w-13" vertex="1">
          <mxGeometry width="11" height="11" as="geometry" />
        </mxCell>
        <mxCell id="wtbYi6GZdxYj_9KWXV_w-16" value="DECODER" style="rounded=0;whiteSpace=wrap;html=1;fillColor=#dae8fc;strokeColor=#6c8ebf;fontStyle=1" parent="1" vertex="1">
          <mxGeometry x="800" y="1480" width="80" height="160" as="geometry" />
        </mxCell>
        <mxCell id="wtbYi6GZdxYj_9KWXV_w-18" value="" style="endArrow=classic;html=1;rounded=0;entryX=0;entryY=0.875;entryDx=0;entryDy=0;entryPerimeter=0;strokeWidth=2;" parent="1" edge="1">
          <mxGeometry width="50" height="50" relative="1" as="geometry">
            <mxPoint x="760" y="1560" as="sourcePoint" />
            <mxPoint x="800" y="1560" as="targetPoint" />
          </mxGeometry>
        </mxCell>
        <mxCell id="wtbYi6GZdxYj_9KWXV_w-19" value="inst" style="text;html=1;strokeColor=none;fillColor=none;align=center;verticalAlign=middle;whiteSpace=wrap;rounded=0;fontStyle=1" parent="1" vertex="1">
          <mxGeometry x="738" y="1555" width="17" height="10" as="geometry" />
        </mxCell>
        <mxCell id="wtbYi6GZdxYj_9KWXV_w-20" value="" style="endArrow=none;html=1;rounded=0;" parent="1" edge="1">
          <mxGeometry width="50" height="50" relative="1" as="geometry">
            <mxPoint x="770" y="1570" as="sourcePoint" />
            <mxPoint x="780" y="1550" as="targetPoint" />
          </mxGeometry>
        </mxCell>
        <mxCell id="wtbYi6GZdxYj_9KWXV_w-22" value="" style="endArrow=classic;html=1;rounded=0;entryX=0;entryY=0.875;entryDx=0;entryDy=0;entryPerimeter=0;strokeWidth=2;" parent="1" edge="1">
          <mxGeometry width="50" height="50" relative="1" as="geometry">
            <mxPoint x="880" y="1498.86" as="sourcePoint" />
            <mxPoint x="920" y="1498.86" as="targetPoint" />
          </mxGeometry>
        </mxCell>
        <mxCell id="wtbYi6GZdxYj_9KWXV_w-23" value="rf_ra0, rf_ra1, rf_wa" style="text;html=1;strokeColor=none;fillColor=none;align=center;verticalAlign=middle;whiteSpace=wrap;rounded=0;fontStyle=1" parent="1" vertex="1">
          <mxGeometry x="925" y="1490" width="115" height="15" as="geometry" />
        </mxCell>
        <mxCell id="wtbYi6GZdxYj_9KWXV_w-24" value="" style="group" parent="1" vertex="1" connectable="0">
          <mxGeometry x="884" y="1487" width="15.5" height="22" as="geometry" />
        </mxCell>
        <mxCell id="wtbYi6GZdxYj_9KWXV_w-25" value="" style="endArrow=none;html=1;rounded=0;" parent="wtbYi6GZdxYj_9KWXV_w-24" edge="1">
          <mxGeometry width="50" height="50" relative="1" as="geometry">
            <mxPoint x="5.5" y="22" as="sourcePoint" />
            <mxPoint x="15.5" y="2" as="targetPoint" />
          </mxGeometry>
        </mxCell>
        <mxCell id="wtbYi6GZdxYj_9KWXV_w-26" value="5" style="text;html=1;strokeColor=none;fillColor=none;align=center;verticalAlign=middle;whiteSpace=wrap;rounded=0;fontSize=6;" parent="wtbYi6GZdxYj_9KWXV_w-24" vertex="1">
          <mxGeometry width="11" height="11" as="geometry" />
        </mxCell>
        <mxCell id="wtbYi6GZdxYj_9KWXV_w-31" value="" style="endArrow=classic;html=1;rounded=0;exitX=1;exitY=0.25;exitDx=0;exitDy=0;" parent="1" edge="1">
          <mxGeometry width="50" height="50" relative="1" as="geometry">
            <mxPoint x="880" y="1527" as="sourcePoint" />
            <mxPoint x="920" y="1527" as="targetPoint" />
          </mxGeometry>
        </mxCell>
        <mxCell id="wtbYi6GZdxYj_9KWXV_w-32" value="rf_we" style="text;html=1;strokeColor=none;fillColor=none;align=center;verticalAlign=middle;whiteSpace=wrap;rounded=0;fontStyle=0" parent="1" vertex="1">
          <mxGeometry x="924" y="1519" width="35" height="15" as="geometry" />
        </mxCell>
        <mxCell id="wtbYi6GZdxYj_9KWXV_w-33" value="" style="endArrow=classic;html=1;rounded=0;entryX=0;entryY=0.875;entryDx=0;entryDy=0;entryPerimeter=0;strokeWidth=2;" parent="1" edge="1">
          <mxGeometry width="50" height="50" relative="1" as="geometry">
            <mxPoint x="880" y="1557" as="sourcePoint" />
            <mxPoint x="920" y="1557" as="targetPoint" />
          </mxGeometry>
        </mxCell>
        <mxCell id="wtbYi6GZdxYj_9KWXV_w-34" value="" style="group" parent="1" vertex="1" connectable="0">
          <mxGeometry x="884" y="1545" width="15.5" height="22" as="geometry" />
        </mxCell>
        <mxCell id="wtbYi6GZdxYj_9KWXV_w-35" value="" style="endArrow=none;html=1;rounded=0;" parent="wtbYi6GZdxYj_9KWXV_w-34" edge="1">
          <mxGeometry width="50" height="50" relative="1" as="geometry">
            <mxPoint x="5.5" y="22" as="sourcePoint" />
            <mxPoint x="15.5" y="2" as="targetPoint" />
          </mxGeometry>
        </mxCell>
        <mxCell id="wtbYi6GZdxYj_9KWXV_w-36" value="5" style="text;html=1;strokeColor=none;fillColor=none;align=center;verticalAlign=middle;whiteSpace=wrap;rounded=0;fontSize=6;" parent="wtbYi6GZdxYj_9KWXV_w-34" vertex="1">
          <mxGeometry width="11" height="11" as="geometry" />
        </mxCell>
        <mxCell id="wtbYi6GZdxYj_9KWXV_w-37" value="alu_op" style="text;html=1;strokeColor=none;fillColor=none;align=center;verticalAlign=middle;whiteSpace=wrap;rounded=0;fontStyle=1" parent="1" vertex="1">
          <mxGeometry x="924" y="1548.5" width="45" height="15" as="geometry" />
        </mxCell>
        <mxCell id="wtbYi6GZdxYj_9KWXV_w-38" value="" style="endArrow=classic;html=1;rounded=0;exitX=1;exitY=0.25;exitDx=0;exitDy=0;" parent="1" edge="1">
          <mxGeometry width="50" height="50" relative="1" as="geometry">
            <mxPoint x="880" y="1587" as="sourcePoint" />
            <mxPoint x="920" y="1587" as="targetPoint" />
          </mxGeometry>
        </mxCell>
        <mxCell id="wtbYi6GZdxYj_9KWXV_w-39" value="alu_src0_sel, alu_src1_sel" style="text;html=1;strokeColor=none;fillColor=none;align=center;verticalAlign=middle;whiteSpace=wrap;rounded=0;fontStyle=0" parent="1" vertex="1">
          <mxGeometry x="921" y="1578" width="153" height="15" as="geometry" />
        </mxCell>
        <mxCell id="wtbYi6GZdxYj_9KWXV_w-40" value="" style="endArrow=classic;html=1;rounded=0;entryX=0;entryY=0.875;entryDx=0;entryDy=0;entryPerimeter=0;strokeWidth=2;" parent="1" edge="1">
          <mxGeometry width="50" height="50" relative="1" as="geometry">
            <mxPoint x="880" y="1618.86" as="sourcePoint" />
            <mxPoint x="920" y="1618.86" as="targetPoint" />
          </mxGeometry>
        </mxCell>
        <mxCell id="wtbYi6GZdxYj_9KWXV_w-41" value="imm" style="text;html=1;strokeColor=none;fillColor=none;align=center;verticalAlign=middle;whiteSpace=wrap;rounded=0;fontStyle=1" parent="1" vertex="1">
          <mxGeometry x="927" y="1610" width="25" height="15" as="geometry" />
        </mxCell>
        <mxCell id="wtbYi6GZdxYj_9KWXV_w-42" value="" style="group" parent="1" vertex="1" connectable="0">
          <mxGeometry x="884" y="1607" width="15.5" height="22" as="geometry" />
        </mxCell>
        <mxCell id="wtbYi6GZdxYj_9KWXV_w-43" value="" style="endArrow=none;html=1;rounded=0;" parent="wtbYi6GZdxYj_9KWXV_w-42" edge="1">
          <mxGeometry width="50" height="50" relative="1" as="geometry">
            <mxPoint x="5.5" y="22" as="sourcePoint" />
            <mxPoint x="15.5" y="2" as="targetPoint" />
          </mxGeometry>
        </mxCell>
        <mxCell id="wtbYi6GZdxYj_9KWXV_w-44" value="32" style="text;html=1;strokeColor=none;fillColor=none;align=center;verticalAlign=middle;whiteSpace=wrap;rounded=0;fontSize=6;" parent="wtbYi6GZdxYj_9KWXV_w-42" vertex="1">
          <mxGeometry width="11" height="11" as="geometry" />
        </mxCell>
        <mxCell id="wtbYi6GZdxYj_9KWXV_w-45" value="REGFILE" style="rounded=0;whiteSpace=wrap;html=1;fontStyle=1;fillColor=#d5e8d4;strokeColor=#82b366;" parent="1" vertex="1">
          <mxGeometry x="800" y="1680" width="80" height="240" as="geometry" />
        </mxCell>
        <mxCell id="wtbYi6GZdxYj_9KWXV_w-46" value="" style="endArrow=classic;html=1;rounded=0;entryX=0;entryY=0.125;entryDx=0;entryDy=0;entryPerimeter=0;" parent="1" edge="1">
          <mxGeometry width="50" height="50" relative="1" as="geometry">
            <mxPoint x="760" y="1700" as="sourcePoint" />
            <mxPoint x="800" y="1700" as="targetPoint" />
          </mxGeometry>
        </mxCell>
        <mxCell id="wtbYi6GZdxYj_9KWXV_w-47" value="clk" style="text;html=1;strokeColor=none;fillColor=none;align=center;verticalAlign=middle;whiteSpace=wrap;rounded=0;" parent="1" vertex="1">
          <mxGeometry x="735" y="1695" width="20" height="10" as="geometry" />
        </mxCell>
        <mxCell id="wtbYi6GZdxYj_9KWXV_w-48" value="" style="endArrow=classic;html=1;rounded=0;entryX=0;entryY=0.875;entryDx=0;entryDy=0;entryPerimeter=0;strokeWidth=2;" parent="1" edge="1">
          <mxGeometry width="50" height="50" relative="1" as="geometry">
            <mxPoint x="760" y="1739.86" as="sourcePoint" />
            <mxPoint x="800" y="1739.86" as="targetPoint" />
          </mxGeometry>
        </mxCell>
        <mxCell id="wtbYi6GZdxYj_9KWXV_w-49" value="rf_wa" style="text;html=1;strokeColor=none;fillColor=none;align=center;verticalAlign=middle;whiteSpace=wrap;rounded=0;fontStyle=1" parent="1" vertex="1">
          <mxGeometry x="717.5" y="1811.5" width="35" height="15" as="geometry" />
        </mxCell>
        <mxCell id="wtbYi6GZdxYj_9KWXV_w-50" value="" style="group" parent="1" vertex="1" connectable="0">
          <mxGeometry x="764" y="1728" width="15.5" height="22" as="geometry" />
        </mxCell>
        <mxCell id="wtbYi6GZdxYj_9KWXV_w-51" value="" style="endArrow=none;html=1;rounded=0;" parent="wtbYi6GZdxYj_9KWXV_w-50" edge="1">
          <mxGeometry width="50" height="50" relative="1" as="geometry">
            <mxPoint x="5.5" y="22" as="sourcePoint" />
            <mxPoint x="15.5" y="2" as="targetPoint" />
          </mxGeometry>
        </mxCell>
        <mxCell id="wtbYi6GZdxYj_9KWXV_w-52" value="5" style="text;html=1;strokeColor=none;fillColor=none;align=center;verticalAlign=middle;whiteSpace=wrap;rounded=0;fontSize=6;" parent="wtbYi6GZdxYj_9KWXV_w-50" vertex="1">
          <mxGeometry width="11" height="11" as="geometry" />
        </mxCell>
        <mxCell id="wtbYi6GZdxYj_9KWXV_w-53" value="" style="endArrow=classic;html=1;rounded=0;entryX=0;entryY=0.875;entryDx=0;entryDy=0;entryPerimeter=0;strokeWidth=2;" parent="1" edge="1">
          <mxGeometry width="50" height="50" relative="1" as="geometry">
            <mxPoint x="760" y="1780.86" as="sourcePoint" />
            <mxPoint x="800" y="1780.86" as="targetPoint" />
          </mxGeometry>
        </mxCell>
        <mxCell id="wtbYi6GZdxYj_9KWXV_w-54" value="" style="group" parent="1" vertex="1" connectable="0">
          <mxGeometry x="764" y="1769" width="15.5" height="22" as="geometry" />
        </mxCell>
        <mxCell id="wtbYi6GZdxYj_9KWXV_w-55" value="" style="endArrow=none;html=1;rounded=0;" parent="wtbYi6GZdxYj_9KWXV_w-54" edge="1">
          <mxGeometry width="50" height="50" relative="1" as="geometry">
            <mxPoint x="5.5" y="22" as="sourcePoint" />
            <mxPoint x="15.5" y="2" as="targetPoint" />
          </mxGeometry>
        </mxCell>
        <mxCell id="wtbYi6GZdxYj_9KWXV_w-56" value="5" style="text;html=1;strokeColor=none;fillColor=none;align=center;verticalAlign=middle;whiteSpace=wrap;rounded=0;fontSize=6;" parent="wtbYi6GZdxYj_9KWXV_w-54" vertex="1">
          <mxGeometry width="11" height="11" as="geometry" />
        </mxCell>
        <mxCell id="wtbYi6GZdxYj_9KWXV_w-57" value="" style="endArrow=classic;html=1;rounded=0;entryX=0;entryY=0.875;entryDx=0;entryDy=0;entryPerimeter=0;strokeWidth=2;" parent="1" edge="1">
          <mxGeometry width="50" height="50" relative="1" as="geometry">
            <mxPoint x="760" y="1819.86" as="sourcePoint" />
            <mxPoint x="800" y="1819.86" as="targetPoint" />
          </mxGeometry>
        </mxCell>
        <mxCell id="wtbYi6GZdxYj_9KWXV_w-58" value="" style="group" parent="1" vertex="1" connectable="0">
          <mxGeometry x="764" y="1808" width="15.5" height="22" as="geometry" />
        </mxCell>
        <mxCell id="wtbYi6GZdxYj_9KWXV_w-59" value="" style="endArrow=none;html=1;rounded=0;" parent="wtbYi6GZdxYj_9KWXV_w-58" edge="1">
          <mxGeometry width="50" height="50" relative="1" as="geometry">
            <mxPoint x="5.5" y="22" as="sourcePoint" />
            <mxPoint x="15.5" y="2" as="targetPoint" />
          </mxGeometry>
        </mxCell>
        <mxCell id="wtbYi6GZdxYj_9KWXV_w-60" value="5" style="text;html=1;strokeColor=none;fillColor=none;align=center;verticalAlign=middle;whiteSpace=wrap;rounded=0;fontSize=6;" parent="wtbYi6GZdxYj_9KWXV_w-58" vertex="1">
          <mxGeometry width="11" height="11" as="geometry" />
        </mxCell>
        <mxCell id="wtbYi6GZdxYj_9KWXV_w-61" value="rf_ra0" style="text;html=1;strokeColor=none;fillColor=none;align=center;verticalAlign=middle;whiteSpace=wrap;rounded=0;fontStyle=1" parent="1" vertex="1">
          <mxGeometry x="717.5" y="1731.5" width="35" height="15" as="geometry" />
        </mxCell>
        <mxCell id="wtbYi6GZdxYj_9KWXV_w-62" value="rf_ra1" style="text;html=1;strokeColor=none;fillColor=none;align=center;verticalAlign=middle;whiteSpace=wrap;rounded=0;fontStyle=1" parent="1" vertex="1">
          <mxGeometry x="717.5" y="1772.5" width="35" height="15" as="geometry" />
        </mxCell>
        <mxCell id="wtbYi6GZdxYj_9KWXV_w-63" value="" style="endArrow=classic;html=1;rounded=0;entryX=0;entryY=0.875;entryDx=0;entryDy=0;entryPerimeter=0;strokeWidth=2;" parent="1" edge="1">
          <mxGeometry width="50" height="50" relative="1" as="geometry">
            <mxPoint x="760" y="1861" as="sourcePoint" />
            <mxPoint x="800" y="1861" as="targetPoint" />
          </mxGeometry>
        </mxCell>
        <mxCell id="wtbYi6GZdxYj_9KWXV_w-64" value="rf_wd" style="text;html=1;strokeColor=none;fillColor=none;align=center;verticalAlign=middle;whiteSpace=wrap;rounded=0;fontStyle=1" parent="1" vertex="1">
          <mxGeometry x="715" y="1852" width="40" height="16" as="geometry" />
        </mxCell>
        <mxCell id="wtbYi6GZdxYj_9KWXV_w-65" value="" style="group" parent="1" vertex="1" connectable="0">
          <mxGeometry x="764.5" y="1849" width="15.5" height="22" as="geometry" />
        </mxCell>
        <mxCell id="wtbYi6GZdxYj_9KWXV_w-66" value="" style="endArrow=none;html=1;rounded=0;" parent="wtbYi6GZdxYj_9KWXV_w-65" edge="1">
          <mxGeometry width="50" height="50" relative="1" as="geometry">
            <mxPoint x="5.5" y="22" as="sourcePoint" />
            <mxPoint x="15.5" y="2" as="targetPoint" />
          </mxGeometry>
        </mxCell>
        <mxCell id="wtbYi6GZdxYj_9KWXV_w-67" value="32" style="text;html=1;strokeColor=none;fillColor=none;align=center;verticalAlign=middle;whiteSpace=wrap;rounded=0;fontSize=6;" parent="wtbYi6GZdxYj_9KWXV_w-65" vertex="1">
          <mxGeometry width="11" height="11" as="geometry" />
        </mxCell>
        <mxCell id="wtbYi6GZdxYj_9KWXV_w-68" value="" style="endArrow=classic;html=1;rounded=0;entryX=0;entryY=0.5;entryDx=0;entryDy=0;" parent="1" edge="1">
          <mxGeometry width="50" height="50" relative="1" as="geometry">
            <mxPoint x="760" y="1900" as="sourcePoint" />
            <mxPoint x="800" y="1900" as="targetPoint" />
          </mxGeometry>
        </mxCell>
        <mxCell id="wtbYi6GZdxYj_9KWXV_w-69" value="rf_we" style="text;html=1;strokeColor=none;fillColor=none;align=center;verticalAlign=middle;whiteSpace=wrap;rounded=0;" parent="1" vertex="1">
          <mxGeometry x="717.5" y="1895" width="40" height="10" as="geometry" />
        </mxCell>
        <mxCell id="wtbYi6GZdxYj_9KWXV_w-70" value="" style="endArrow=classic;html=1;rounded=0;entryX=0;entryY=0.875;entryDx=0;entryDy=0;entryPerimeter=0;strokeWidth=2;" parent="1" edge="1">
          <mxGeometry width="50" height="50" relative="1" as="geometry">
            <mxPoint x="880" y="1740" as="sourcePoint" />
            <mxPoint x="920" y="1740" as="targetPoint" />
          </mxGeometry>
        </mxCell>
        <mxCell id="wtbYi6GZdxYj_9KWXV_w-71" value="rf_rd0" style="text;html=1;strokeColor=none;fillColor=none;align=center;verticalAlign=middle;whiteSpace=wrap;rounded=0;fontStyle=1" parent="1" vertex="1">
          <mxGeometry x="925" y="1731.5" width="40" height="16" as="geometry" />
        </mxCell>
        <mxCell id="wtbYi6GZdxYj_9KWXV_w-72" value="" style="group" parent="1" vertex="1" connectable="0">
          <mxGeometry x="884.5" y="1728" width="15.5" height="22" as="geometry" />
        </mxCell>
        <mxCell id="wtbYi6GZdxYj_9KWXV_w-73" value="" style="endArrow=none;html=1;rounded=0;" parent="wtbYi6GZdxYj_9KWXV_w-72" edge="1">
          <mxGeometry width="50" height="50" relative="1" as="geometry">
            <mxPoint x="5.5" y="22" as="sourcePoint" />
            <mxPoint x="15.5" y="2" as="targetPoint" />
          </mxGeometry>
        </mxCell>
        <mxCell id="wtbYi6GZdxYj_9KWXV_w-74" value="32" style="text;html=1;strokeColor=none;fillColor=none;align=center;verticalAlign=middle;whiteSpace=wrap;rounded=0;fontSize=6;" parent="wtbYi6GZdxYj_9KWXV_w-72" vertex="1">
          <mxGeometry width="11" height="11" as="geometry" />
        </mxCell>
        <mxCell id="wtbYi6GZdxYj_9KWXV_w-75" value="" style="endArrow=classic;html=1;rounded=0;entryX=0;entryY=0.875;entryDx=0;entryDy=0;entryPerimeter=0;strokeWidth=2;" parent="1" edge="1">
          <mxGeometry width="50" height="50" relative="1" as="geometry">
            <mxPoint x="880" y="1781" as="sourcePoint" />
            <mxPoint x="920" y="1781" as="targetPoint" />
          </mxGeometry>
        </mxCell>
        <mxCell id="wtbYi6GZdxYj_9KWXV_w-76" value="rf_rd1" style="text;html=1;strokeColor=none;fillColor=none;align=center;verticalAlign=middle;whiteSpace=wrap;rounded=0;fontStyle=1" parent="1" vertex="1">
          <mxGeometry x="925" y="1772.5" width="40" height="16" as="geometry" />
        </mxCell>
        <mxCell id="wtbYi6GZdxYj_9KWXV_w-77" value="" style="group" parent="1" vertex="1" connectable="0">
          <mxGeometry x="884.5" y="1769" width="15.5" height="22" as="geometry" />
        </mxCell>
        <mxCell id="wtbYi6GZdxYj_9KWXV_w-78" value="" style="endArrow=none;html=1;rounded=0;" parent="wtbYi6GZdxYj_9KWXV_w-77" edge="1">
          <mxGeometry width="50" height="50" relative="1" as="geometry">
            <mxPoint x="5.5" y="22" as="sourcePoint" />
            <mxPoint x="15.5" y="2" as="targetPoint" />
          </mxGeometry>
        </mxCell>
        <mxCell id="wtbYi6GZdxYj_9KWXV_w-79" value="32" style="text;html=1;strokeColor=none;fillColor=none;align=center;verticalAlign=middle;whiteSpace=wrap;rounded=0;fontSize=6;" parent="wtbYi6GZdxYj_9KWXV_w-77" vertex="1">
          <mxGeometry width="11" height="11" as="geometry" />
        </mxCell>
        <mxCell id="wtbYi6GZdxYj_9KWXV_w-80" value="" style="endArrow=classic;startArrow=classic;html=1;rounded=0;strokeWidth=2;fontColor=#3333FF;strokeColor=#3333FF;" parent="1" edge="1">
          <mxGeometry width="50" height="50" relative="1" as="geometry">
            <mxPoint x="880" y="1880" as="sourcePoint" />
            <mxPoint x="920" y="1880" as="targetPoint" />
          </mxGeometry>
        </mxCell>
        <mxCell id="wtbYi6GZdxYj_9KWXV_w-81" value="dbg_reg_ra, dbg_reg_rd" style="text;html=1;strokeColor=none;fillColor=none;align=center;verticalAlign=middle;whiteSpace=wrap;rounded=0;fontStyle=1;fontColor=#3333FF;" parent="1" vertex="1">
          <mxGeometry x="924" y="1865" width="75.5" height="27" as="geometry" />
        </mxCell>
        <mxCell id="wtbYi6GZdxYj_9KWXV_w-82" value="ALU" style="rounded=0;whiteSpace=wrap;html=1;fontStyle=1;fillColor=#dae8fc;strokeColor=#6c8ebf;fontSize=14;" parent="1" vertex="1">
          <mxGeometry x="1240" y="1440" width="80" height="120" as="geometry" />
        </mxCell>
        <mxCell id="wtbYi6GZdxYj_9KWXV_w-83" value="" style="endArrow=classic;html=1;rounded=0;entryX=0;entryY=0.875;entryDx=0;entryDy=0;entryPerimeter=0;strokeWidth=2;" parent="1" edge="1">
          <mxGeometry width="50" height="50" relative="1" as="geometry">
            <mxPoint x="1200" y="1480" as="sourcePoint" />
            <mxPoint x="1240" y="1480" as="targetPoint" />
          </mxGeometry>
        </mxCell>
        <mxCell id="wtbYi6GZdxYj_9KWXV_w-84" value="alu_src0" style="text;html=1;strokeColor=none;fillColor=none;align=center;verticalAlign=middle;whiteSpace=wrap;rounded=0;fontStyle=1" parent="1" vertex="1">
          <mxGeometry x="1140" y="1475" width="55" height="10" as="geometry" />
        </mxCell>
        <mxCell id="wtbYi6GZdxYj_9KWXV_w-85" value="" style="group" parent="1" vertex="1" connectable="0">
          <mxGeometry x="1204.5" y="1468" width="15.5" height="22" as="geometry" />
        </mxCell>
        <mxCell id="wtbYi6GZdxYj_9KWXV_w-86" value="" style="endArrow=none;html=1;rounded=0;" parent="wtbYi6GZdxYj_9KWXV_w-85" edge="1">
          <mxGeometry width="50" height="50" relative="1" as="geometry">
            <mxPoint x="5.5" y="22" as="sourcePoint" />
            <mxPoint x="15.5" y="2" as="targetPoint" />
          </mxGeometry>
        </mxCell>
        <mxCell id="wtbYi6GZdxYj_9KWXV_w-87" value="32" style="text;html=1;strokeColor=none;fillColor=none;align=center;verticalAlign=middle;whiteSpace=wrap;rounded=0;fontSize=6;" parent="wtbYi6GZdxYj_9KWXV_w-85" vertex="1">
          <mxGeometry width="11" height="11" as="geometry" />
        </mxCell>
        <mxCell id="wtbYi6GZdxYj_9KWXV_w-88" value="" style="endArrow=classic;html=1;rounded=0;entryX=0;entryY=0.875;entryDx=0;entryDy=0;entryPerimeter=0;strokeWidth=2;" parent="1" edge="1">
          <mxGeometry width="50" height="50" relative="1" as="geometry">
            <mxPoint x="1200" y="1520" as="sourcePoint" />
            <mxPoint x="1240" y="1520" as="targetPoint" />
          </mxGeometry>
        </mxCell>
        <mxCell id="wtbYi6GZdxYj_9KWXV_w-89" value="alu_src1" style="text;html=1;strokeColor=none;fillColor=none;align=center;verticalAlign=middle;whiteSpace=wrap;rounded=0;fontStyle=1" parent="1" vertex="1">
          <mxGeometry x="1140" y="1515" width="55" height="10" as="geometry" />
        </mxCell>
        <mxCell id="wtbYi6GZdxYj_9KWXV_w-90" value="" style="group" parent="1" vertex="1" connectable="0">
          <mxGeometry x="1204.5" y="1508" width="15.5" height="22" as="geometry" />
        </mxCell>
        <mxCell id="wtbYi6GZdxYj_9KWXV_w-91" value="" style="endArrow=none;html=1;rounded=0;" parent="wtbYi6GZdxYj_9KWXV_w-90" edge="1">
          <mxGeometry width="50" height="50" relative="1" as="geometry">
            <mxPoint x="5.5" y="22" as="sourcePoint" />
            <mxPoint x="15.5" y="2" as="targetPoint" />
          </mxGeometry>
        </mxCell>
        <mxCell id="wtbYi6GZdxYj_9KWXV_w-92" value="32" style="text;html=1;strokeColor=none;fillColor=none;align=center;verticalAlign=middle;whiteSpace=wrap;rounded=0;fontSize=6;" parent="wtbYi6GZdxYj_9KWXV_w-90" vertex="1">
          <mxGeometry width="11" height="11" as="geometry" />
        </mxCell>
        <mxCell id="wtbYi6GZdxYj_9KWXV_w-94" value="" style="endArrow=classic;html=1;rounded=0;entryX=0;entryY=0.875;entryDx=0;entryDy=0;entryPerimeter=0;strokeWidth=2;" parent="1" edge="1">
          <mxGeometry width="50" height="50" relative="1" as="geometry">
            <mxPoint x="1200" y="1548.86" as="sourcePoint" />
            <mxPoint x="1240" y="1548.86" as="targetPoint" />
          </mxGeometry>
        </mxCell>
        <mxCell id="wtbYi6GZdxYj_9KWXV_w-95" value="" style="group" parent="1" vertex="1" connectable="0">
          <mxGeometry x="1204" y="1537" width="15.5" height="22" as="geometry" />
        </mxCell>
        <mxCell id="wtbYi6GZdxYj_9KWXV_w-96" value="" style="endArrow=none;html=1;rounded=0;" parent="wtbYi6GZdxYj_9KWXV_w-95" edge="1">
          <mxGeometry width="50" height="50" relative="1" as="geometry">
            <mxPoint x="5.5" y="22" as="sourcePoint" />
            <mxPoint x="15.5" y="2" as="targetPoint" />
          </mxGeometry>
        </mxCell>
        <mxCell id="wtbYi6GZdxYj_9KWXV_w-97" value="5" style="text;html=1;strokeColor=none;fillColor=none;align=center;verticalAlign=middle;whiteSpace=wrap;rounded=0;fontSize=6;" parent="wtbYi6GZdxYj_9KWXV_w-95" vertex="1">
          <mxGeometry width="11" height="11" as="geometry" />
        </mxCell>
        <mxCell id="wtbYi6GZdxYj_9KWXV_w-98" value="alu_op" style="text;html=1;strokeColor=none;fillColor=none;align=center;verticalAlign=middle;whiteSpace=wrap;rounded=0;fontStyle=1" parent="1" vertex="1">
          <mxGeometry x="1155" y="1540.5" width="35" height="15" as="geometry" />
        </mxCell>
        <mxCell id="wtbYi6GZdxYj_9KWXV_w-99" value="" style="endArrow=classic;html=1;rounded=0;entryX=0;entryY=0.875;entryDx=0;entryDy=0;entryPerimeter=0;strokeWidth=2;" parent="1" edge="1">
          <mxGeometry width="50" height="50" relative="1" as="geometry">
            <mxPoint x="1320" y="1500.86" as="sourcePoint" />
            <mxPoint x="1360" y="1500.86" as="targetPoint" />
          </mxGeometry>
        </mxCell>
        <mxCell id="wtbYi6GZdxYj_9KWXV_w-100" value="alu_res" style="text;html=1;strokeColor=none;fillColor=none;align=center;verticalAlign=middle;whiteSpace=wrap;rounded=0;fontStyle=1" parent="1" vertex="1">
          <mxGeometry x="1363.5" y="1493" width="53" height="15" as="geometry" />
        </mxCell>
        <mxCell id="wtbYi6GZdxYj_9KWXV_w-101" value="" style="group" parent="1" vertex="1" connectable="0">
          <mxGeometry x="1324" y="1489" width="15.5" height="22" as="geometry" />
        </mxCell>
        <mxCell id="wtbYi6GZdxYj_9KWXV_w-102" value="" style="endArrow=none;html=1;rounded=0;" parent="wtbYi6GZdxYj_9KWXV_w-101" edge="1">
          <mxGeometry width="50" height="50" relative="1" as="geometry">
            <mxPoint x="5.5" y="22" as="sourcePoint" />
            <mxPoint x="15.5" y="2" as="targetPoint" />
          </mxGeometry>
        </mxCell>
        <mxCell id="wtbYi6GZdxYj_9KWXV_w-103" value="32" style="text;html=1;strokeColor=none;fillColor=none;align=center;verticalAlign=middle;whiteSpace=wrap;rounded=0;fontSize=6;" parent="wtbYi6GZdxYj_9KWXV_w-101" vertex="1">
          <mxGeometry width="11" height="11" as="geometry" />
        </mxCell>
        <mxCell id="UOA1iHlRtjCQ2NlCKyja-1" value="rf_wd" style="text;html=1;strokeColor=none;fillColor=none;align=center;verticalAlign=middle;whiteSpace=wrap;rounded=0;fontStyle=1" parent="1" vertex="1">
          <mxGeometry x="1162.5" y="1220" width="30" height="20" as="geometry" />
        </mxCell>
        <mxCell id="UOA1iHlRtjCQ2NlCKyja-3" value="alu_src1" style="text;html=1;strokeColor=none;fillColor=none;align=center;verticalAlign=middle;whiteSpace=wrap;rounded=0;fontStyle=1" parent="1" vertex="1">
          <mxGeometry x="1495.5" y="1120" width="49" height="20" as="geometry" />
        </mxCell>
        <mxCell id="UOA1iHlRtjCQ2NlCKyja-4" value="alu_src0" style="text;html=1;strokeColor=none;fillColor=none;align=center;verticalAlign=middle;whiteSpace=wrap;rounded=0;fontStyle=1" parent="1" vertex="1">
          <mxGeometry x="1495.5" y="1020" width="49" height="20" as="geometry" />
        </mxCell>
        <mxCell id="UOA1iHlRtjCQ2NlCKyja-5" value="inst" style="text;html=1;strokeColor=none;fillColor=none;align=center;verticalAlign=middle;whiteSpace=wrap;rounded=0;fontStyle=1" parent="1" vertex="1">
          <mxGeometry x="949" y="1061" width="20" height="20" as="geometry" />
        </mxCell>
        <mxCell id="UOA1iHlRtjCQ2NlCKyja-6" value="" style="shape=waypoint;sketch=0;size=6;pointerEvents=1;points=[];fillColor=none;resizable=0;rotatable=0;perimeter=centerPerimeter;snapToPoint=1;" parent="1" vertex="1">
          <mxGeometry x="1110" y="1070" width="20" height="20" as="geometry" />
        </mxCell>
        <mxCell id="UOA1iHlRtjCQ2NlCKyja-9" value="" style="shape=waypoint;sketch=0;size=6;pointerEvents=1;points=[];fillColor=none;resizable=0;rotatable=0;perimeter=centerPerimeter;snapToPoint=1;" parent="1" vertex="1">
          <mxGeometry x="1110" y="1130" width="20" height="20" as="geometry" />
        </mxCell>
        <mxCell id="UOA1iHlRtjCQ2NlCKyja-11" value="" style="shape=waypoint;sketch=0;size=6;pointerEvents=1;points=[];fillColor=none;resizable=0;rotatable=0;perimeter=centerPerimeter;snapToPoint=1;" parent="1" vertex="1">
          <mxGeometry x="1110" y="1190" width="20" height="20" as="geometry" />
        </mxCell>
        <mxCell id="UOA1iHlRtjCQ2NlCKyja-12" value="npc" style="text;html=1;strokeColor=none;fillColor=none;align=center;verticalAlign=middle;whiteSpace=wrap;rounded=0;fontStyle=1" parent="1" vertex="1">
          <mxGeometry x="650" y="1030" width="30" height="20" as="geometry" />
        </mxCell>
        <mxCell id="tI96Y_cj1fdC6GXMh-KR-1" value="&lt;b&gt;MUX&lt;/b&gt;" style="rounded=0;whiteSpace=wrap;html=1;fillColor=#dae8fc;strokeColor=#6c8ebf;" parent="1" vertex="1">
          <mxGeometry x="1240" y="1640" width="40" height="80" as="geometry" />
        </mxCell>
        <mxCell id="tI96Y_cj1fdC6GXMh-KR-2" value="" style="endArrow=classic;html=1;rounded=0;entryX=0;entryY=0.875;entryDx=0;entryDy=0;entryPerimeter=0;strokeWidth=2;" parent="1" edge="1">
          <mxGeometry width="50" height="50" relative="1" as="geometry">
            <mxPoint x="1200" y="1661" as="sourcePoint" />
            <mxPoint x="1240" y="1661" as="targetPoint" />
          </mxGeometry>
        </mxCell>
        <mxCell id="tI96Y_cj1fdC6GXMh-KR-3" value="src0" style="text;html=1;strokeColor=none;fillColor=none;align=center;verticalAlign=middle;whiteSpace=wrap;rounded=0;fontStyle=1" parent="1" vertex="1">
          <mxGeometry x="1153" y="1656" width="55" height="10" as="geometry" />
        </mxCell>
        <mxCell id="tI96Y_cj1fdC6GXMh-KR-4" value="" style="group" parent="1" vertex="1" connectable="0">
          <mxGeometry x="1204.5" y="1649" width="15.5" height="22" as="geometry" />
        </mxCell>
        <mxCell id="tI96Y_cj1fdC6GXMh-KR-5" value="" style="endArrow=none;html=1;rounded=0;" parent="tI96Y_cj1fdC6GXMh-KR-4" edge="1">
          <mxGeometry width="50" height="50" relative="1" as="geometry">
            <mxPoint x="5.5" y="22" as="sourcePoint" />
            <mxPoint x="15.5" y="2" as="targetPoint" />
          </mxGeometry>
        </mxCell>
        <mxCell id="tI96Y_cj1fdC6GXMh-KR-6" value="WIDTH" style="text;html=1;strokeColor=none;fillColor=none;align=center;verticalAlign=middle;whiteSpace=wrap;rounded=0;fontSize=6;" parent="tI96Y_cj1fdC6GXMh-KR-4" vertex="1">
          <mxGeometry x="-10" width="21" height="11" as="geometry" />
        </mxCell>
        <mxCell id="tI96Y_cj1fdC6GXMh-KR-7" value="" style="endArrow=classic;html=1;rounded=0;entryX=0;entryY=0.875;entryDx=0;entryDy=0;entryPerimeter=0;strokeWidth=2;" parent="1" edge="1">
          <mxGeometry width="50" height="50" relative="1" as="geometry">
            <mxPoint x="1200" y="1701" as="sourcePoint" />
            <mxPoint x="1240" y="1701" as="targetPoint" />
          </mxGeometry>
        </mxCell>
        <mxCell id="tI96Y_cj1fdC6GXMh-KR-8" value="src1" style="text;html=1;strokeColor=none;fillColor=none;align=center;verticalAlign=middle;whiteSpace=wrap;rounded=0;fontStyle=1" parent="1" vertex="1">
          <mxGeometry x="1153" y="1697" width="55" height="10" as="geometry" />
        </mxCell>
        <mxCell id="tI96Y_cj1fdC6GXMh-KR-13" value="" style="group" parent="1" vertex="1" connectable="0">
          <mxGeometry x="1204" y="1689" width="15.5" height="22" as="geometry" />
        </mxCell>
        <mxCell id="tI96Y_cj1fdC6GXMh-KR-14" value="" style="endArrow=none;html=1;rounded=0;" parent="tI96Y_cj1fdC6GXMh-KR-13" edge="1">
          <mxGeometry width="50" height="50" relative="1" as="geometry">
            <mxPoint x="5.5" y="22" as="sourcePoint" />
            <mxPoint x="15.5" y="2" as="targetPoint" />
          </mxGeometry>
        </mxCell>
        <mxCell id="tI96Y_cj1fdC6GXMh-KR-15" value="WIDTH" style="text;html=1;strokeColor=none;fillColor=none;align=center;verticalAlign=middle;whiteSpace=wrap;rounded=0;fontSize=6;" parent="tI96Y_cj1fdC6GXMh-KR-13" vertex="1">
          <mxGeometry x="-10" width="21" height="11" as="geometry" />
        </mxCell>
        <mxCell id="tI96Y_cj1fdC6GXMh-KR-16" value="" style="endArrow=classic;html=1;rounded=0;strokeWidth=2;" parent="1" edge="1">
          <mxGeometry width="50" height="50" relative="1" as="geometry">
            <mxPoint x="1280" y="1679.86" as="sourcePoint" />
            <mxPoint x="1328" y="1680" as="targetPoint" />
          </mxGeometry>
        </mxCell>
        <mxCell id="tI96Y_cj1fdC6GXMh-KR-17" value="res" style="text;html=1;strokeColor=none;fillColor=none;align=center;verticalAlign=middle;whiteSpace=wrap;rounded=0;fontStyle=1" parent="1" vertex="1">
          <mxGeometry x="1332.5" y="1672.5" width="15.5" height="15" as="geometry" />
        </mxCell>
        <mxCell id="tI96Y_cj1fdC6GXMh-KR-18" value="" style="group" parent="1" vertex="1" connectable="0">
          <mxGeometry x="1300" y="1669" width="15.5" height="22" as="geometry" />
        </mxCell>
        <mxCell id="tI96Y_cj1fdC6GXMh-KR-19" value="" style="endArrow=none;html=1;rounded=0;" parent="tI96Y_cj1fdC6GXMh-KR-18" edge="1">
          <mxGeometry width="50" height="50" relative="1" as="geometry">
            <mxPoint x="5.5" y="22" as="sourcePoint" />
            <mxPoint x="15.5" y="2" as="targetPoint" />
          </mxGeometry>
        </mxCell>
        <mxCell id="tI96Y_cj1fdC6GXMh-KR-21" value="WIDTH" style="text;html=1;strokeColor=none;fillColor=none;align=center;verticalAlign=middle;whiteSpace=wrap;rounded=0;fontSize=6;" parent="tI96Y_cj1fdC6GXMh-KR-18" vertex="1">
          <mxGeometry x="-9" y="-2" width="21" height="11" as="geometry" />
        </mxCell>
        <mxCell id="tI96Y_cj1fdC6GXMh-KR-22" value="" style="endArrow=classic;html=1;rounded=0;entryX=0.5;entryY=1;entryDx=0;entryDy=0;" parent="1" target="tI96Y_cj1fdC6GXMh-KR-1" edge="1">
          <mxGeometry width="50" height="50" relative="1" as="geometry">
            <mxPoint x="1200" y="1750" as="sourcePoint" />
            <mxPoint x="1290" y="1740" as="targetPoint" />
            <Array as="points">
              <mxPoint x="1260" y="1750" />
            </Array>
          </mxGeometry>
        </mxCell>
        <mxCell id="tI96Y_cj1fdC6GXMh-KR-23" value="sel" style="text;html=1;strokeColor=none;fillColor=none;align=center;verticalAlign=middle;whiteSpace=wrap;rounded=0;" parent="1" vertex="1">
          <mxGeometry x="1172.5" y="1742" width="22.5" height="16.5" as="geometry" />
        </mxCell>
      </root>
    </mxGraphModel>
  </diagram>
</mxfile>
